<svg width="273" height="6" viewBox="0 0 273 6" fill="none" xmlns="http://www.w3.org/2000/svg">
<path d="M257.984 3.30802C258.242 3.56275 258.597 4.5197 258.329 4.85704C257.917 5.37338 257.349 5.10488 256.707 5.08423C255.403 5.04522 253.872 5.22881 252.788 5.09801C250.326 4.79509 247.84 5.30913 245.493 4.79738C244.712 4.62756 244.244 4.78361 243.561 4.90523C242.048 5.17373 240.503 4.67345 238.839 4.93507C237.706 5.11407 236.283 4.80885 234.965 4.81344C234.554 4.81574 234.069 4.97867 233.532 4.84098C233.947 4.55183 234.275 4.32234 234.732 4.00106C234.362 3.99647 234.097 3.9437 234.02 3.99877C232.674 4.96261 231.014 4.62526 229.358 4.54953C227.977 4.48757 226.624 4.82262 225.226 4.90753C222.635 5.06358 220.058 4.05155 217.502 4.91671C216.103 3.72339 214.266 5.03145 212.543 4.59084C211.724 4.38201 210.011 4.64362 208.69 4.71247C208.672 4.71247 208.582 4.71706 208.582 4.71706L208.753 4.73083C207.145 4.73542 205.464 5.25405 203.961 4.34529C203.78 4.23284 202.64 3.6752 202.026 4.36595C202.054 4.3866 202.082 4.40496 202.11 4.42561C202.089 4.41643 202.068 4.40725 202.047 4.40266L202.05 4.40726C201.311 4.8318 200.554 4.68952 199.794 4.4302C199.787 4.43709 199.777 4.44168 199.77 4.44856C199.738 4.46692 199.707 4.48758 199.679 4.50823C199.84 4.56101 199.871 4.54035 199.77 4.44856C199.766 4.44627 199.77 4.44626 199.766 4.44626C199.812 4.36135 199.853 4.27875 199.899 4.19384L197.569 4.65281C196.14 4.96261 194.727 5.13243 193.409 4.47381C193.409 4.4761 193.406 4.47839 193.402 4.48298C191.697 4.36824 190.079 4.79738 188.329 4.70788C185.549 4.5656 182.756 4.87311 179.946 4.87081C176.134 4.86622 172.326 5.29307 168.508 5.456C165.495 5.58451 162.5 5.44912 159.584 4.83869C158.988 4.71477 158.336 4.81114 157.694 4.95572C155.257 5.50419 152.37 5.76581 150.312 5.13931C147.739 4.35447 145.556 5.30454 143.157 4.98326C140.621 4.64363 137.832 4.97408 135.216 4.88458C132.162 4.78131 129.055 5.43075 125.944 4.61149C125.233 4.42332 123.392 4.1663 122.028 4.98326C121.146 5.51108 119.409 5.08882 118.137 4.63674C117.411 4.37972 116.505 3.82895 115.954 4.85475C115.762 5.21045 115.061 5.08194 114.583 5.06588C110.134 4.92589 105.667 5.02916 101.224 5.02916C98.2042 5.02916 95.0728 5.10718 92.0251 5.15308C89.0296 5.19898 85.9749 5.13013 82.976 5.23799C77.0514 5.4537 71.1338 5.15537 65.2266 5.29995C58.0362 5.47436 50.8423 5.49272 43.6553 5.61664C37.5703 5.71991 31.6597 5.01769 25.6618 4.78132C23.0395 4.67805 20.358 4.81574 17.7391 5.03834C12.648 5.46977 7.54982 5.39633 2.45515 5.2311C1.05333 5.18521 -0.0730168 4.52429 0.00369965 3.48472C0.0734419 2.54613 0.83362 1.96324 2.47605 1.97242C8.43552 2.00455 14.1649 0.907613 20.0197 0.414221C22.7711 0.182441 25.5119 0.242108 28.2109 0.400452C33.7171 0.724026 39.2128 0.67583 44.7224 0.733201C51.8396 0.806636 58.9637 0.836473 66.067 0.751564C73.0726 0.668949 80.0643 0.962689 87.0524 0.836472C96.4084 0.666653 105.775 0.877778 115.113 0.590922C119.831 0.446346 124.581 0.893839 129.271 0.308653C129.599 0.267345 130.007 0.269642 130.216 0.668946C128.825 0.82729 127.444 0.985636 126.063 1.14398C137.148 1.54558 148.223 1.60065 159.302 1.18299C159.225 0.689597 158.099 1.16464 158.13 0.457823C161.446 0.299479 165.028 -0.425698 168.096 0.531253C173.233 2.13076 178.474 0.652886 183.572 1.25414C183.82 1.28397 184.148 1.03842 184.413 0.928264C184.203 0.336194 183.15 0.545025 182.652 0.0172096C184.179 -0.0906483 185.406 0.324722 186.317 0.808935C187.139 1.24725 187.896 1.401 188.838 1.3597C191.261 1.25872 193.685 1.15086 196.105 1.00399C197.608 0.914492 199.065 1.12332 200.533 1.16922C203.811 1.27478 207.107 1.16922 210.392 1.07973C213.383 0.999406 216.428 0.542726 219.343 0.788275C221.773 0.992517 224.134 0.948918 226.53 0.935149C229.016 0.92138 231.534 1.00858 233.93 0.519782C234.784 0.347668 235.084 0.733203 235.617 0.864009C237.839 1.40789 240.063 0.822704 242.299 0.916793C245.563 1.04989 248.914 0.689601 252.111 1.02235C254.151 1.23348 256.034 0.526665 257.945 0.955802C257.973 1.06136 258.015 1.13939 257.991 1.14857C256.251 1.86456 257.29 2.61039 257.984 3.30802ZM270.384 2.84446L270.509 2.85364L270.46 2.76873L270.384 2.84446ZM157.36 0.480766L157.241 0.471592L157.283 0.554203L157.36 0.480766ZM175.5 0.393568L175.486 0.473882L175.615 0.441758L175.5 0.393568ZM268.131 1.43313C268.114 1.4033 268.1 1.34822 268.079 1.34822C268.02 1.34363 267.957 1.36199 267.897 1.37117C267.915 1.40559 267.929 1.46526 267.946 1.46526C268.009 1.46526 268.068 1.4469 268.131 1.43313ZM137.602 0.758448C137.549 0.746974 137.497 0.733204 137.445 0.72173C137.438 0.767627 137.431 0.811228 137.42 0.857125C137.476 0.85024 137.539 0.850239 137.584 0.834175C137.605 0.824996 137.598 0.783691 137.602 0.758448ZM266.778 1.58C266.869 1.51345 266.963 1.4469 267.064 1.37576C266.925 1.35281 266.775 1.29544 266.673 1.32068C266.586 1.34363 266.499 1.45837 266.503 1.52951C266.513 1.6695 266.632 1.68556 266.778 1.58ZM172.337 0.425692C172.291 0.393564 172.249 0.338489 172.201 0.3339C172.072 0.327015 171.939 0.343076 171.81 0.352255C171.859 0.400447 171.911 0.448638 171.967 0.501419C172.089 0.476176 172.211 0.450936 172.337 0.425692ZM270.164 2.15371C269.993 2.23633 270.011 2.31435 270.22 2.33041C270.335 2.3373 270.523 2.30058 270.562 2.2478C270.61 2.18584 270.53 2.08487 270.502 1.99766C270.387 2.05045 270.276 2.10093 270.164 2.15371ZM271.995 4.36365L271.998 4.36136C272.016 4.3843 272.051 4.39807 272.082 4.41184C272.106 4.67116 271.664 5.01309 272.358 5.13701C272.507 5.16226 272.905 4.95573 272.961 4.81803C273.184 4.26268 272.396 4.54035 272.082 4.41184C272.079 4.38201 272.075 4.35218 272.058 4.32464C272.026 4.32693 271.995 4.32923 271.963 4.33152C271.848 4.23055 271.946 3.96894 271.541 4.09975C271.416 4.14105 271.374 4.28562 271.29 4.38201C271.517 4.36594 271.74 4.34759 271.963 4.33152C271.977 4.3407 271.977 4.35677 271.995 4.36365ZM263.089 0.260463C263.612 0.267347 264.055 0.271941 264.498 0.278826C264.055 0.21457 263.612 -0.0562261 263.089 0.260463ZM141.692 0.657474C141.699 0.618462 141.702 0.581744 141.706 0.542732C141.521 0.512899 141.305 0.43487 141.155 0.466998C140.932 0.51519 140.44 0.246695 140.541 0.634524C140.555 0.682716 141.291 0.65059 141.692 0.657474ZM268.884 3.86108C268.912 3.87026 268.94 3.87944 268.965 3.88862C269.052 4.40955 269.564 4.70558 270.328 4.919C270.457 4.20071 269.617 4.09974 268.965 3.88862C268.965 3.86567 268.947 3.84731 268.947 3.82436C268.926 3.81977 268.912 3.81289 268.891 3.8083C268.951 3.39752 269.174 2.92478 268.093 2.95003C268.093 2.94085 268.089 2.93167 268.093 2.92249C268.065 2.92478 268.04 2.93166 268.013 2.93396C266.119 3.0946 264.679 4.22137 262.583 3.985C262.175 3.93681 261.997 4.14793 262.091 4.41184C262.095 4.41873 262.091 4.42561 262.095 4.43479C262.109 4.41643 262.119 4.40037 262.13 4.3866C262.116 4.39349 262.105 4.40266 262.091 4.41184C262.07 4.42561 262.053 4.43709 262.036 4.45086C263.525 4.46922 265.017 4.48987 266.569 4.51052C266.405 4.83868 266.213 5.21963 265.952 5.74745C265.174 4.55871 263.49 5.36191 262.349 4.71018C262.444 5.64647 263.41 5.69466 264.306 5.84612C262.594 6.39459 260.017 5.39633 259.793 4.12499C259.696 3.55816 259.591 2.88806 259.954 2.41303C260.662 1.49509 259.804 1.52722 258.751 1.50198C260.107 1.08202 261.38 0.937447 262.977 1.03154C262.388 1.39412 262.733 1.98619 261.819 2.18125C260.644 2.83528 262.716 2.70218 262.416 3.14279C262.304 3.17262 262.193 3.20475 262.081 3.23688C262.144 3.27589 262.203 3.3172 262.262 3.35851C262.318 3.28737 262.37 3.21623 262.423 3.14739C263.643 3.29196 264.871 3.0969 265.868 2.76644C266.816 2.45205 267.35 2.66087 268.013 2.93396C268.023 2.93855 268.037 2.94314 268.047 2.95003C268.065 2.94773 268.075 2.95003 268.093 2.95003C267.981 3.38375 268.281 3.65684 268.891 3.8083C268.891 3.82436 268.884 3.84272 268.884 3.86108ZM269.386 1.51345C270.241 1.41247 270.764 1.34134 271.158 0.89843C270.23 0.632228 269.805 0.836468 269.386 1.51345ZM261.279 1.88522C261.216 1.99996 261.153 2.1147 261.091 2.23174C261.328 2.21108 261.561 2.19043 261.799 2.16978C261.621 2.07569 261.45 1.97931 261.279 1.88522ZM261.003 2.27304C260.693 2.28681 260.306 2.20879 260.282 2.54384C260.278 2.61039 260.414 2.74349 260.456 2.7389C260.85 2.68841 260.958 2.49335 261.003 2.27304ZM124.04 1.08431C122.98 0.999403 122.244 0.870895 121.139 1.16693C122.255 1.34363 122.994 1.44231 124.04 1.08431ZM168.163 0.864009C165.335 0.430283 163.964 0.501421 162.747 1.20594C164.634 1.06825 166.496 1.8462 168.163 0.864009ZM191.111 4.26268C191.069 4.24661 191.028 4.23284 190.986 4.21678C190.982 4.27185 190.975 4.32694 190.968 4.37972C191.014 4.36824 191.069 4.36365 191.097 4.343C191.118 4.32694 191.108 4.29022 191.111 4.26268ZM196.014 3.8978C194.811 3.95976 193.821 3.64537 193.42 4.45774C194.302 4.59773 195.006 4.34759 196.014 3.8978ZM214.607 2.93626C214.496 2.89036 214.388 2.81004 214.273 2.80775C214.158 2.80545 214.039 2.87659 213.92 2.9179C214.029 2.9638 214.14 3.01199 214.252 3.06018C214.374 3.01887 214.489 2.97756 214.607 2.93626ZM225.843 3.88403C225.651 3.84502 225.459 3.77617 225.264 3.77617C225.09 3.77617 224.814 3.78994 224.936 4.05843C225.03 4.11351 225.18 4.20071 225.334 4.28792C225.501 4.15252 225.672 4.01713 225.843 3.88403ZM227.161 3.66602C227.126 3.63618 227.091 3.60865 227.056 3.58111C227.011 3.60406 226.966 3.62701 226.924 3.64766C226.959 3.67749 226.99 3.72569 227.029 3.72798C227.07 3.73028 227.116 3.68896 227.161 3.66602ZM237.197 4.22596C237.204 4.1204 237.057 4.00795 236.981 3.9001C236.775 3.94599 236.646 3.97582 236.513 4.00566C236.601 4.1181 236.646 4.26038 236.779 4.3407C236.981 4.46003 237.183 4.37513 237.197 4.22596ZM237.35 2.66547C237.302 2.63563 237.246 2.57597 237.214 2.58056C237.106 2.60121 237.005 2.64251 236.904 2.67464C237.009 2.70447 237.113 2.74119 237.225 2.75496C237.256 2.75955 237.309 2.69759 237.35 2.66547ZM241.054 3.5398C240.36 3.25065 239.868 3.37687 239.516 3.83813C240.213 4.13876 240.698 3.99418 241.054 3.5398ZM244.499 3.81059C244.537 3.38375 244.056 3.42735 243.784 3.33556C243.411 3.21164 243.327 3.39293 243.292 3.58799C243.247 3.86796 243.428 4.04696 243.868 4.01713C244.108 4.00106 244.332 3.86796 244.499 3.81059ZM246.528 3.34474C246.49 3.16115 246.316 3.0028 245.873 3.01198C245.793 3.08771 245.552 3.22082 245.594 3.28966C245.681 3.4526 245.869 3.6729 246.082 3.70732C246.406 3.75781 246.57 3.53751 246.528 3.34474ZM248.01 4.21908C247.969 4.18924 247.93 4.15941 247.892 4.13187C247.843 4.17088 247.798 4.2099 247.752 4.24891C247.791 4.26268 247.833 4.27875 247.874 4.29481C247.92 4.26957 247.965 4.24432 248.01 4.21908ZM248.328 3.16804C248.446 2.89266 248.021 2.95461 247.812 2.94084C247.533 2.92248 247.271 2.98674 247.191 3.39293C247.188 3.39293 247.358 3.46178 247.543 3.48702C247.951 3.54439 248.237 3.38605 248.328 3.16804ZM251.829 3.24606C251.871 2.65858 253.168 2.26157 252.729 1.72916C252.411 1.34363 250.95 1.54099 250.912 1.83473C250.818 2.55761 249.395 3.37228 250.852 4.07221C251.804 4.01254 250.106 2.90872 251.829 3.24606ZM252.941 3.75781C252.878 3.70503 252.812 3.65455 252.743 3.60636C252.659 3.64537 252.568 3.68438 252.491 3.73027C252.484 3.73486 252.568 3.82666 252.596 3.82436C252.715 3.81289 252.826 3.78076 252.941 3.75781Z" fill="url(#paint0_linear_83_7382)"/>
<defs>
<linearGradient id="paint0_linear_83_7382" x1="0.00021257" y1="3.00051" x2="272.999" y2="3.00051" gradientUnits="userSpaceOnUse">
<stop stop-color="#BE9636"/>
<stop offset="1" stop-color="#F4CC6C"/>
</linearGradient>
</defs>
</svg>
