<svg width="367" height="6" viewBox="0 0 367 6" fill="none" xmlns="http://www.w3.org/2000/svg">
<path d="M366.825 3.34897C366.882 3.34897 366.943 3.35142 367 3.35142C366.953 3.35876 366.905 3.36366 366.863 3.36855C365.151 3.951 363.26 4.47715 361.359 4.47715C358.233 4.47715 355.108 4.01218 351.973 3.97792C348.762 3.94121 345.537 4.15168 342.332 4.32299C340.776 4.40375 339.23 4.69497 337.811 4.09049C337.485 3.951 337.22 3.92164 336.87 4.03176C333.565 5.09387 329.924 4.50897 326.444 4.69986C320.179 5.04492 313.895 5.38508 307.606 5.53681C286.138 6.05318 264.662 5.52213 243.195 5.62981C237.459 5.65918 231.733 5.45851 225.964 5.75952C220.172 6.06053 214.318 5.42179 208.459 5.44137C197.957 5.47808 187.455 5.37774 176.953 5.33369C169.865 5.30432 162.773 5.27985 155.685 5.23091C154.9 5.22601 154.006 5.07673 153.623 4.66804C152.555 3.52762 151.382 4.04399 149.396 4.49673C150.881 4.68517 151.623 4.77817 152.389 4.87362C152.143 5.47319 151.377 5.22601 150.89 5.22601C145.916 5.2309 140.923 5.04491 135.972 5.22846C131.21 5.40711 126.439 5.29943 121.654 5.59555C118.874 5.7693 115.758 5.61268 112.793 5.48787C109.204 5.33614 105.558 5.34838 101.969 5.50011C88.1575 6.08745 74.3315 5.65429 60.5244 5.85252C49.9184 6.00425 39.3266 6.01893 28.7254 5.98466C23.2829 5.96509 17.8688 5.6812 12.4595 5.33859C9.48053 5.15015 6.64348 6.06053 3.62672 5.89412C3.01202 5.85986 2.37366 5.92348 1.77787 5.85495C0.770709 5.74483 0.108729 5.4267 0.00943083 4.76594C-0.0804101 4.19573 0.482271 4.00239 1.24355 3.80905C5.90109 2.63437 10.7714 2.10332 15.8356 1.83657C20.862 1.57471 25.789 2.34071 30.7539 2.08864C39.4638 1.64569 48.1973 2.15716 56.8835 1.85125C67.863 1.46703 78.8235 1.84391 89.7888 1.74602C97.9313 1.67261 106.083 1.8953 114.216 1.75826C125.848 1.56492 137.48 1.7656 149.107 1.59429C154.153 1.52088 159.259 1.27616 164.239 1.52333C167.331 1.67506 170.428 1.21497 173.483 1.71666C174.963 1.95893 176.58 1.72888 178.065 1.67749C184.249 1.46458 190.411 1.53556 196.591 1.56738C201.338 1.59185 206.109 1.49641 210.857 1.44747C213.963 1.41565 217.174 1.07303 220.351 1.52333C221.623 1.70198 223.056 1.30796 224.475 1.31775C240.102 1.40341 255.734 1.58206 271.357 1.46948C281.443 1.39606 291.534 1.43278 301.61 1.2737C308.504 1.16603 315.427 0.703495 322.307 0.60071C330.175 0.480795 337.991 -0.299879 345.92 0.125943C350.313 0.360879 354.791 0.015819 359.231 0.00602996C361.865 0.00113546 363.978 1.03632 366.437 1.43033C367.128 1.54046 366.792 2.211 366.191 2.60011C365.421 3.0969 365.444 3.42728 366.825 3.34897ZM128.983 4.19572C127.82 4.38172 127.054 4.4013 126.269 4.85649C127.413 4.92746 128.264 5.03513 128.983 4.19572ZM142.994 4.66069C142.786 4.42086 142.45 4.28627 141.996 4.345C141.726 4.37926 141.646 4.54323 141.868 4.65336C142.1 4.77083 142.384 4.8785 142.677 4.9201C142.833 4.94213 143.202 4.87605 142.994 4.66069ZM353.127 2.60501C352.999 2.5267 352.867 2.44594 352.748 2.37252C352.545 2.42391 352.403 2.46062 352.257 2.49978C352.403 2.57075 352.526 2.67597 352.692 2.70534C352.81 2.72492 352.98 2.64172 353.127 2.60501Z" fill="url(#paint0_linear_83_7181)"/>
<defs>
<linearGradient id="paint0_linear_83_7181" x1="0.000285763" y1="3.00051" x2="366.999" y2="3.00051" gradientUnits="userSpaceOnUse">
<stop stop-color="#BE9636"/>
<stop offset="1" stop-color="#F4CC6C"/>
</linearGradient>
</defs>
</svg>
