<svg width="88" height="2" viewBox="0 0 88 2" fill="none" xmlns="http://www.w3.org/2000/svg">
<path d="M87.958 1.11632C87.9717 1.11632 87.9864 1.11714 88 1.11714C87.9887 1.11959 87.9773 1.12122 87.9671 1.12285C87.5567 1.317 87.1032 1.49238 86.6474 1.49238C85.8979 1.49238 85.1485 1.33739 84.3968 1.32597C83.6269 1.31374 82.8537 1.38389 82.085 1.441C81.7119 1.46792 81.3412 1.56499 81.001 1.3635C80.9228 1.317 80.8593 1.30721 80.7754 1.34392C79.9829 1.69796 79.1099 1.50299 78.2754 1.56662C76.7731 1.68164 75.2663 1.79503 73.7583 1.8456C68.6109 2.01773 63.4611 1.84071 58.3137 1.8766C56.9384 1.88639 55.5653 1.8195 54.1821 1.91984C52.7932 2.02018 51.3895 1.80726 49.9848 1.81379C47.4666 1.82603 44.9484 1.79258 42.4302 1.7779C40.7307 1.76811 39.03 1.75995 37.3304 1.74364C37.1422 1.742 36.9279 1.69224 36.8361 1.55601C36.5798 1.17587 36.2986 1.348 35.8224 1.49891C36.1785 1.56172 36.3565 1.59273 36.5401 1.62454C36.4812 1.8244 36.2975 1.742 36.1807 1.742C34.988 1.74363 33.7907 1.68164 32.6036 1.74282C31.4619 1.80237 30.3178 1.76648 29.1704 1.86518C28.5038 1.9231 27.7566 1.87089 27.0457 1.82929C26.1851 1.77871 25.311 1.78279 24.4504 1.83337C21.1386 2.02915 17.8234 1.88476 14.5127 1.95084C11.9695 2.00142 9.42982 2.00631 6.88784 1.99489C5.58283 1.98836 4.28462 1.89373 2.98756 1.77953C2.27326 1.71672 1.59299 2.02018 0.869622 1.96471C0.722228 1.95329 0.569161 1.97449 0.426302 1.95165C0.184802 1.91494 0.0260712 1.8089 0.00226134 1.58865C-0.0192809 1.39858 0.11564 1.33413 0.298182 1.26968C1.41498 0.878124 2.58279 0.701107 3.79709 0.61219C5.00232 0.524905 6.18375 0.780237 7.37424 0.696215C9.4627 0.548564 11.5568 0.719053 13.6396 0.617084C16.2723 0.489011 18.9005 0.614638 21.5297 0.582008C23.4822 0.557535 25.4368 0.631767 27.387 0.586085C30.1761 0.521641 32.9653 0.588534 35.7533 0.531431C36.9631 0.506959 38.1876 0.425386 39.3815 0.507776C40.123 0.558353 40.8656 0.40499 41.598 0.572219C41.9529 0.652978 42.3407 0.576295 42.6967 0.559164C44.1797 0.488194 45.657 0.511855 47.1389 0.522459C48.2773 0.530617 49.4213 0.498803 50.5596 0.482488C51.3045 0.471884 52.0744 0.357678 52.8363 0.507776C53.1413 0.567326 53.4848 0.435988 53.8249 0.439251C57.5722 0.467802 61.3205 0.527352 65.0666 0.489827C67.485 0.465355 69.9045 0.477592 72.3207 0.424568C73.9737 0.388675 75.6336 0.234498 77.2833 0.200237C79.17 0.160265 81.0441 -0.0999596 82.9455 0.041981C83.9988 0.120293 85.0725 0.00527299 86.1372 0.00200999C86.7687 0.000378486 87.2755 0.345442 87.8651 0.476777C88.0306 0.513486 87.9501 0.736999 87.8061 0.866704C87.6213 1.0323 87.627 1.14243 87.958 1.11632ZM30.9278 1.39857C30.6489 1.46057 30.4652 1.4671 30.277 1.61883C30.5514 1.64249 30.7555 1.67838 30.9278 1.39857ZM34.2873 1.55356C34.2374 1.47362 34.1569 1.42876 34.0481 1.44833C33.9834 1.45975 33.9642 1.51441 34.0174 1.55112C34.073 1.59028 34.141 1.62617 34.2113 1.64003C34.2487 1.64738 34.3372 1.62535 34.2873 1.55356ZM84.6734 0.868337C84.6428 0.842233 84.6111 0.815312 84.5827 0.79084C84.534 0.80797 84.4999 0.820208 84.4648 0.83326C84.4999 0.856917 84.5294 0.891991 84.5691 0.90178C84.5975 0.908306 84.6383 0.880573 84.6734 0.868337Z" fill="url(#paint0_linear_83_7388)"/>
<defs>
<linearGradient id="paint0_linear_83_7388" x1="6.85207e-05" y1="1.00017" x2="87.9997" y2="1.00017" gradientUnits="userSpaceOnUse">
<stop stop-color="#BE9636"/>
<stop offset="1" stop-color="#F4CC6C"/>
</linearGradient>
</defs>
</svg>
