<svg width="73" height="2" viewBox="0 0 73 2" fill="none" xmlns="http://www.w3.org/2000/svg">
<path d="M72.9652 1.11632C72.9765 1.11632 72.9887 1.11714 73 1.11714C72.9906 1.11959 72.9812 1.12122 72.9727 1.12285C72.6322 1.317 72.256 1.49238 71.8779 1.49238C71.2562 1.49238 70.6345 1.33739 70.011 1.32597C69.3723 1.31374 68.7309 1.38389 68.0932 1.441C67.7838 1.46792 67.4762 1.56499 67.1941 1.3635C67.1292 1.317 67.0765 1.30721 67.0069 1.34392C66.3494 1.69796 65.6252 1.50299 64.933 1.56662C63.6868 1.68164 62.4368 1.79503 61.1859 1.8456C56.9158 2.01773 52.6439 1.84071 48.3738 1.8766C47.233 1.88639 46.094 1.8195 44.9465 1.91984C43.7944 2.02018 42.63 1.80726 41.4646 1.81379C39.3757 1.82603 37.2868 1.79258 35.1978 1.7779C33.7879 1.76811 32.3771 1.75995 30.9673 1.74364C30.8111 1.742 30.6334 1.69224 30.5572 1.55601C30.3446 1.17587 30.1114 1.348 29.7163 1.49891C30.0117 1.56172 30.1593 1.59273 30.3117 1.62454C30.2628 1.8244 30.1104 1.742 30.0136 1.742C29.0241 1.74363 28.0309 1.68164 27.0462 1.74282C26.099 1.80237 25.15 1.76648 24.1982 1.86518C23.6452 1.9231 23.0254 1.87089 22.4356 1.82929C21.7218 1.77871 20.9966 1.78279 20.2827 1.83337C17.5354 2.02915 14.7853 1.88476 12.0389 1.95084C9.92927 2.00142 7.82246 2.00631 5.71377 1.99489C4.63121 1.98836 3.55429 1.89373 2.47831 1.77953C1.88577 1.71672 1.32146 2.02018 0.721391 1.96471C0.599121 1.95329 0.472145 1.97449 0.353637 1.95165C0.153302 1.91494 0.0216272 1.8089 0.00187589 1.58865C-0.0159944 1.39858 0.0959285 1.33413 0.247355 1.26968C1.17379 0.878124 2.14254 0.701107 3.14986 0.61219C4.14965 0.524905 5.1297 0.780237 6.11727 0.696215C7.84974 0.548564 9.58692 0.719053 11.3147 0.617084C13.4986 0.489011 15.6788 0.614638 17.8599 0.582008C19.4795 0.557535 21.101 0.631767 22.7187 0.586085C25.0325 0.521641 27.3462 0.588534 29.659 0.531431C30.6625 0.506959 31.6783 0.425386 32.6687 0.507776C33.2838 0.558353 33.8999 0.40499 34.5075 0.572219C34.8019 0.652978 35.1235 0.576295 35.4188 0.559164C36.6491 0.488194 37.8746 0.511855 39.1039 0.522459C40.0482 0.530617 40.9972 0.498803 41.9415 0.482488C42.5594 0.471884 43.1981 0.357678 43.8301 0.507776C44.0831 0.567326 44.3681 0.435988 44.6502 0.439251C47.7587 0.467802 50.8682 0.527352 53.9757 0.489827C55.9819 0.465355 57.989 0.477592 59.9933 0.424568C61.3646 0.388675 62.7415 0.234498 64.11 0.200237C65.6751 0.160265 67.2298 -0.0999596 68.8071 0.041981C69.6808 0.120293 70.5715 0.00527299 71.4547 0.00200999C71.9786 0.000378486 72.399 0.345442 72.8881 0.476777C73.0254 0.513486 72.9586 0.736999 72.8392 0.866704C72.6859 1.0323 72.6906 1.14243 72.9652 1.11632ZM25.656 1.39857C25.4247 1.46057 25.2723 1.4671 25.1162 1.61883C25.3438 1.64249 25.5131 1.67838 25.656 1.39857ZM28.4429 1.55356C28.4015 1.47362 28.3347 1.42876 28.2444 1.44833C28.1908 1.45975 28.1748 1.51441 28.219 1.55112C28.2651 1.59028 28.3215 1.62617 28.3798 1.64003C28.4109 1.64738 28.4842 1.62535 28.4429 1.55356ZM70.2405 0.868337C70.2151 0.842233 70.1887 0.815312 70.1652 0.79084C70.1248 0.80797 70.0965 0.820208 70.0674 0.83326C70.0965 0.856917 70.121 0.891991 70.1539 0.90178C70.1774 0.908306 70.2113 0.880573 70.2405 0.868337Z" fill="url(#paint0_linear_83_7389)"/>
<defs>
<linearGradient id="paint0_linear_83_7389" x1="5.68411e-05" y1="1.00017" x2="72.9998" y2="1.00017" gradientUnits="userSpaceOnUse">
<stop stop-color="#BE9636"/>
<stop offset="1" stop-color="#F4CC6C"/>
</linearGradient>
</defs>
</svg>
