<svg width="111" height="2" viewBox="0 0 111 2" fill="none" xmlns="http://www.w3.org/2000/svg">
<path d="M104.894 1.10267C104.999 1.18758 105.144 1.50657 105.035 1.61901C104.868 1.79113 104.636 1.70163 104.376 1.69474C103.845 1.68174 103.223 1.74294 102.782 1.69934C101.781 1.59836 100.77 1.76971 99.8158 1.59913C99.4982 1.54252 99.3082 1.59454 99.0303 1.63508C98.4149 1.72458 97.7868 1.55782 97.1105 1.64502C96.6497 1.70469 96.0713 1.60295 95.5353 1.60448C95.368 1.60525 95.1709 1.65956 94.9526 1.61366C95.1213 1.51728 95.2546 1.44078 95.4403 1.33369C95.29 1.33216 95.1823 1.31457 95.1511 1.33292C94.6038 1.6542 93.9289 1.54175 93.2554 1.51651C92.694 1.49586 92.1438 1.60754 91.5753 1.63584C90.5218 1.68786 89.4741 1.35052 88.4348 1.6389C87.8662 1.24113 87.119 1.67715 86.4186 1.53028C86.0854 1.46067 85.3893 1.54787 84.8519 1.57082C84.8448 1.57082 84.808 1.57235 84.808 1.57235L84.8774 1.57694C84.2238 1.57847 83.5404 1.75135 82.9293 1.44843C82.8556 1.41095 82.392 1.22507 82.1424 1.45532C82.1538 1.4622 82.1651 1.46832 82.1764 1.4752C82.1679 1.47214 82.1594 1.46908 82.1509 1.46755L82.1524 1.46908C81.8518 1.6106 81.5441 1.56317 81.235 1.47673C81.2322 1.47903 81.2279 1.48056 81.2251 1.48285C81.2123 1.48897 81.1996 1.49586 81.1882 1.50274C81.2534 1.52034 81.2662 1.51345 81.2251 1.48285C81.2237 1.48209 81.2251 1.48209 81.2237 1.48209C81.2421 1.45378 81.2591 1.42625 81.2775 1.39795L80.3304 1.55094C79.7491 1.6542 79.1749 1.71081 78.6389 1.49127C78.6389 1.49203 78.6375 1.4928 78.6361 1.49433C77.9428 1.45608 77.2849 1.59913 76.5732 1.56929C75.4431 1.52187 74.3075 1.62437 73.1647 1.6236C71.615 1.62207 70.0667 1.76436 68.5142 1.81867C67.2892 1.8615 66.0713 1.81637 64.8859 1.6129C64.6435 1.57159 64.3783 1.60371 64.1175 1.65191C63.1264 1.83473 61.9524 1.92194 61.1159 1.7131C60.0696 1.45149 59.182 1.76818 58.2065 1.66109C57.1758 1.54788 56.0415 1.65803 54.9781 1.62819C53.7361 1.59377 52.4728 1.81025 51.2081 1.53716C50.9188 1.47444 50.1702 1.38877 49.6158 1.66109C49.2571 1.83703 48.5511 1.69627 48.0335 1.54558C47.7386 1.45991 47.37 1.27632 47.146 1.61825C47.068 1.73682 46.783 1.69398 46.5888 1.68863C44.7796 1.64196 42.9634 1.67639 41.157 1.67639C39.9292 1.67639 38.656 1.70239 37.4168 1.71769C36.1989 1.73299 34.9568 1.71004 33.7375 1.746C31.3286 1.8179 28.9225 1.71846 26.5207 1.76665C23.5971 1.82479 20.6721 1.83091 17.75 1.87221C15.2758 1.90664 12.8726 1.67256 10.4339 1.59377C9.36772 1.55935 8.27741 1.60525 7.21262 1.67945C5.14258 1.82326 3.06971 1.79878 0.998247 1.7437C0.428277 1.7284 -0.0296881 1.5081 0.00150425 1.16157C0.029861 0.84871 0.338944 0.654413 1.00675 0.657472C3.42983 0.668182 5.75934 0.302538 8.13989 0.138074C9.25856 0.0608137 10.373 0.0807026 11.4704 0.133484C13.7091 0.241342 15.9437 0.225277 18.1838 0.2444C21.0776 0.268879 23.9743 0.278824 26.8624 0.250521C29.7108 0.222983 32.5536 0.320896 35.3949 0.278824C39.199 0.222218 43.0073 0.292593 46.8043 0.196974C48.7226 0.148782 50.6537 0.297946 52.5607 0.102884C52.694 0.0891152 52.8599 0.0898807 52.9449 0.222982C52.3792 0.275763 51.8177 0.328545 51.2563 0.381327C55.7636 0.515193 60.2666 0.533551 64.7711 0.39433C64.7399 0.229866 64.2819 0.388212 64.2947 0.152608C65.6431 0.0998263 67.0992 -0.141899 68.3469 0.177084C70.4354 0.710254 72.5664 0.217629 74.6392 0.418045C74.7399 0.42799 74.8732 0.346139 74.9809 0.309422C74.8959 0.112065 74.4677 0.181675 74.2649 0.00573652C74.8859 -0.0302161 75.385 0.108241 75.7551 0.269645C76.0897 0.41575 76.3974 0.467001 76.7802 0.453232C77.7656 0.419575 78.751 0.383621 79.7349 0.334664C80.346 0.304831 80.9387 0.374441 81.5356 0.38974C82.8683 0.424928 84.2082 0.389741 85.5438 0.359908C86.7603 0.333135 87.9981 0.180909 89.1834 0.262758C90.1716 0.330839 91.1315 0.316306 92.1056 0.311716C93.1165 0.307127 94.1401 0.336195 95.1142 0.173261C95.4616 0.115889 95.5835 0.244401 95.8004 0.288003C96.7036 0.469296 97.6082 0.274235 98.517 0.305598C99.8441 0.349965 101.207 0.229867 102.507 0.340785C103.336 0.41116 104.102 0.175555 104.879 0.318601C104.89 0.353788 104.907 0.379796 104.897 0.382856C104.19 0.62152 104.612 0.870129 104.894 1.10267ZM109.936 0.948155L109.987 0.951213L109.967 0.92291L109.936 0.948155ZM63.9814 0.160255L63.9332 0.157197L63.9502 0.184734L63.9814 0.160255ZM71.3569 0.131189L71.3513 0.157961L71.4037 0.147253L71.3569 0.131189ZM109.02 0.477711C109.013 0.467767 109.008 0.449406 108.999 0.449406C108.975 0.447876 108.949 0.453996 108.925 0.457056C108.932 0.46853 108.938 0.488419 108.945 0.488419C108.971 0.488419 108.995 0.482301 109.02 0.477711ZM55.9479 0.252816C55.9266 0.248991 55.9054 0.244401 55.8841 0.240577C55.8813 0.255875 55.8784 0.270409 55.8742 0.285708C55.8969 0.283413 55.9224 0.283413 55.9408 0.278058C55.9493 0.274998 55.9465 0.26123 55.9479 0.252816ZM108.47 0.526667C108.507 0.504483 108.545 0.482301 108.586 0.458588C108.53 0.450938 108.469 0.431813 108.428 0.440227C108.392 0.447877 108.357 0.486124 108.358 0.509838C108.362 0.5565 108.411 0.561854 108.47 0.526667ZM70.071 0.141897C70.0525 0.131188 70.0355 0.11283 70.0157 0.1113C69.9632 0.109005 69.9093 0.114359 69.8569 0.117418C69.8767 0.133482 69.898 0.149546 69.9207 0.16714C69.9703 0.158725 70.0199 0.150312 70.071 0.141897ZM109.847 0.717904C109.777 0.745442 109.785 0.77145 109.87 0.776804C109.916 0.779099 109.993 0.766861 110.009 0.749267C110.028 0.728614 109.996 0.694956 109.984 0.665888C109.938 0.683482 109.892 0.70031 109.847 0.717904ZM110.591 1.45455L110.593 1.45379C110.6 1.46143 110.614 1.46602 110.627 1.47061C110.637 1.55705 110.457 1.67103 110.739 1.71234C110.8 1.72075 110.961 1.65191 110.984 1.60601C111.075 1.42089 110.754 1.51345 110.627 1.47061C110.625 1.46067 110.624 1.45073 110.617 1.44155C110.604 1.44231 110.591 1.44308 110.579 1.44384C110.532 1.41018 110.571 1.32298 110.407 1.36658C110.356 1.38035 110.339 1.42854 110.305 1.46067C110.397 1.45531 110.488 1.4492 110.579 1.44384C110.584 1.4469 110.584 1.45226 110.591 1.45455ZM106.97 0.086821C107.183 0.0891158 107.363 0.090647 107.543 0.0929419C107.363 0.0715233 107.183 -0.018742 106.97 0.086821ZM57.611 0.219158C57.6138 0.206154 57.6153 0.193915 57.6167 0.180911C57.5415 0.170966 57.4536 0.144957 57.3927 0.155666C57.3019 0.17173 57.102 0.0822316 57.1431 0.211508C57.1488 0.227572 57.448 0.216863 57.611 0.219158ZM109.327 1.28703C109.338 1.29009 109.349 1.29315 109.359 1.29621C109.395 1.46985 109.603 1.56853 109.914 1.63967C109.966 1.40024 109.624 1.36658 109.359 1.29621C109.359 1.28856 109.352 1.28244 109.352 1.27479C109.344 1.27326 109.338 1.27096 109.329 1.26943C109.354 1.13251 109.444 0.974927 109.005 0.983342C109.005 0.980282 109.003 0.977222 109.005 0.974163C108.993 0.974928 108.983 0.977221 108.972 0.977986C108.202 1.03153 107.617 1.40712 106.765 1.32833C106.599 1.31227 106.526 1.38264 106.565 1.47061C106.566 1.47291 106.565 1.4752 106.566 1.47826C106.572 1.47214 106.576 1.46679 106.58 1.4622C106.575 1.4645 106.57 1.46755 106.565 1.47061C106.556 1.4752 106.549 1.47903 106.542 1.48362C107.147 1.48974 107.754 1.49662 108.385 1.50351C108.319 1.61289 108.241 1.73988 108.134 1.91582C107.818 1.51957 107.133 1.7873 106.67 1.57006C106.708 1.88216 107.101 1.89822 107.465 1.94871C106.769 2.13153 105.721 1.79878 105.63 1.375C105.591 1.18605 105.548 0.962688 105.696 0.804344C105.983 0.498364 105.635 0.509073 105.206 0.500659C105.758 0.360673 106.275 0.312482 106.925 0.343845C106.685 0.464707 106.826 0.662062 106.454 0.727083C105.976 0.945094 106.818 0.900727 106.697 1.0476C106.651 1.05754 106.606 1.06825 106.56 1.07896C106.586 1.09196 106.61 1.10573 106.634 1.1195C106.657 1.09579 106.678 1.07208 106.699 1.04913C107.196 1.09732 107.695 1.0323 108.1 0.922147C108.486 0.817349 108.703 0.886957 108.972 0.977986C108.976 0.979516 108.982 0.981047 108.986 0.983342C108.993 0.982577 108.998 0.983342 109.005 0.983342C108.959 1.12792 109.081 1.21895 109.329 1.26943C109.329 1.27479 109.327 1.28091 109.327 1.28703ZM109.531 0.504483C109.878 0.470825 110.091 0.447112 110.251 0.299477C109.874 0.210743 109.701 0.278823 109.531 0.504483ZM106.234 0.628406C106.209 0.666654 106.183 0.7049 106.158 0.743912C106.254 0.737028 106.349 0.730144 106.446 0.723259C106.373 0.691896 106.304 0.659769 106.234 0.628406ZM106.122 0.757681C105.996 0.76227 105.839 0.736264 105.829 0.847946C105.827 0.87013 105.883 0.914495 105.9 0.912965C106.06 0.896136 106.104 0.831116 106.122 0.757681ZM50.4339 0.361437C50.0029 0.333134 49.7038 0.290298 49.2543 0.388977C49.708 0.447878 50.0086 0.48077 50.4339 0.361437ZM68.3738 0.288003C67.2239 0.143428 66.6667 0.16714 66.1719 0.40198C66.939 0.356083 67.6961 0.615401 68.3738 0.288003ZM77.7046 1.42089C77.6876 1.41554 77.6706 1.41095 77.6535 1.40559C77.6521 1.42395 77.6493 1.44231 77.6465 1.45991C77.6649 1.45608 77.6876 1.45455 77.6989 1.44767C77.7074 1.44231 77.7032 1.43007 77.7046 1.42089ZM79.6981 1.29927C79.2089 1.31992 78.8063 1.21512 78.6432 1.48591C79.0019 1.53258 79.2883 1.4492 79.6981 1.29927ZM87.258 0.978752C87.2126 0.963453 87.1686 0.93668 87.1219 0.935915C87.0751 0.93515 87.0269 0.958865 86.9787 0.972634C87.0226 0.987933 87.068 1.004 87.1134 1.02006C87.163 1.00629 87.2098 0.992521 87.258 0.978752ZM91.8262 1.29468C91.7483 1.28167 91.6703 1.25872 91.5909 1.25872C91.52 1.25872 91.408 1.26331 91.4576 1.35281C91.4959 1.37117 91.5568 1.40024 91.6192 1.42931C91.6873 1.38417 91.7568 1.33904 91.8262 1.29468ZM92.3622 1.22201C92.348 1.21206 92.3338 1.20288 92.3196 1.1937C92.3012 1.20135 92.2828 1.209 92.2658 1.21589C92.2799 1.22583 92.2927 1.2419 92.3083 1.24266C92.3253 1.24343 92.3438 1.22966 92.3622 1.22201ZM96.4427 1.40865C96.4455 1.37347 96.386 1.33598 96.3548 1.30003C96.2712 1.31533 96.2187 1.32527 96.1648 1.33522C96.2003 1.3727 96.2187 1.42013 96.2726 1.4469C96.3548 1.48668 96.437 1.45838 96.4427 1.40865ZM96.5051 0.888489C96.4853 0.878544 96.4626 0.858656 96.4498 0.860186C96.4059 0.86707 96.3647 0.880838 96.3236 0.891547C96.3661 0.901491 96.4087 0.913731 96.4541 0.91832C96.4668 0.91985 96.4881 0.899198 96.5051 0.888489ZM98.0108 1.17993C97.7287 1.08355 97.5288 1.12562 97.3856 1.27938C97.6691 1.37959 97.8662 1.33139 98.0108 1.17993ZM99.4117 1.2702C99.4273 1.12792 99.2316 1.14245 99.121 1.11185C98.9693 1.07055 98.9353 1.13098 98.9211 1.196C98.9027 1.28932 98.9764 1.34899 99.155 1.33904C99.2529 1.33369 99.3436 1.28932 99.4117 1.2702ZM100.237 1.11491C100.221 1.05372 100.15 1.00093 99.9703 1.00399C99.9377 1.02924 99.8399 1.07361 99.8569 1.09655C99.8923 1.15087 99.9689 1.2243 100.055 1.23577C100.187 1.2526 100.254 1.17917 100.237 1.11491ZM100.839 1.40636C100.822 1.39641 100.807 1.38647 100.791 1.37729C100.771 1.39029 100.753 1.4033 100.735 1.4163C100.75 1.42089 100.767 1.42625 100.784 1.4316C100.803 1.42319 100.821 1.41477 100.839 1.40636ZM100.968 1.05601C101.017 0.964219 100.844 0.984871 100.759 0.980281C100.645 0.974162 100.539 0.99558 100.506 1.13098C100.505 1.13098 100.574 1.15393 100.649 1.16234C100.815 1.18146 100.932 1.12868 100.968 1.05601ZM102.392 1.08202C102.409 0.886194 102.936 0.753856 102.758 0.576388C102.629 0.447877 102.035 0.513664 102.019 0.611577C101.981 0.852536 101.402 1.12409 101.995 1.3574C102.382 1.33751 101.692 0.969573 102.392 1.08202ZM102.844 1.2526C102.819 1.23501 102.792 1.21818 102.763 1.20212C102.729 1.21512 102.693 1.22813 102.661 1.24342C102.659 1.24495 102.693 1.27555 102.704 1.27479C102.752 1.27096 102.797 1.26025 102.844 1.2526Z" fill="url(#paint0_linear_83_7390)"/>
<defs>
<linearGradient id="paint0_linear_83_7390" x1="8.64296e-05" y1="1.00017" x2="111" y2="1.00017" gradientUnits="userSpaceOnUse">
<stop stop-color="#BE9636"/>
<stop offset="1" stop-color="#F4CC6C"/>
</linearGradient>
</defs>
</svg>
