<svg width="102" height="2" viewBox="0 0 102 2" fill="none" xmlns="http://www.w3.org/2000/svg">
<path d="M96.3895 1.10267C96.4859 1.18758 96.6188 1.50657 96.5185 1.61901C96.3647 1.79113 96.1524 1.70163 95.9126 1.69474C95.4254 1.68174 94.8534 1.74294 94.4482 1.69934C93.5284 1.59836 92.5994 1.76971 91.7226 1.59913C91.4307 1.54252 91.2561 1.59454 91.0008 1.63508C90.4353 1.72458 89.8582 1.55782 89.2367 1.64502C88.8133 1.70469 88.2817 1.60295 87.7892 1.60448C87.6355 1.60525 87.4544 1.65956 87.2537 1.61366C87.4088 1.51728 87.5312 1.44078 87.7019 1.33369C87.5638 1.33216 87.4648 1.31457 87.4361 1.33292C86.9332 1.6542 86.313 1.54175 85.6942 1.51651C85.1782 1.49586 84.6727 1.60754 84.1503 1.63584C83.1822 1.68786 82.2194 1.35052 81.2644 1.6389C80.7419 1.24113 80.0553 1.67715 79.4117 1.53028C79.1055 1.46067 78.4658 1.54787 77.972 1.57082C77.9655 1.57082 77.9316 1.57235 77.9316 1.57235L77.9955 1.57694C77.3949 1.57847 76.7669 1.75135 76.2053 1.44843C76.1376 1.41095 75.7115 1.22507 75.4822 1.45532C75.4926 1.4622 75.5031 1.46832 75.5135 1.4752C75.5057 1.47214 75.4979 1.46908 75.4901 1.46755L75.4914 1.46908C75.2151 1.6106 74.9324 1.56317 74.6484 1.47673C74.6458 1.47903 74.6419 1.48056 74.6393 1.48285C74.6275 1.48897 74.6158 1.49586 74.6054 1.50274C74.6653 1.52034 74.677 1.51345 74.6393 1.48285C74.638 1.48209 74.6393 1.48209 74.638 1.48209C74.6549 1.45378 74.6705 1.42625 74.6875 1.39795L73.8171 1.55094C73.283 1.6542 72.7553 1.71081 72.2628 1.49127C72.2628 1.49203 72.2615 1.4928 72.2602 1.49433C71.6231 1.45608 71.0186 1.59913 70.3645 1.56929C69.3261 1.52187 68.2825 1.62437 67.2324 1.6236C65.8084 1.62207 64.3856 1.76436 62.959 1.81867C61.8333 1.8615 60.7141 1.81637 59.6249 1.6129C59.4021 1.57159 59.1585 1.60371 58.9188 1.65191C58.008 1.83473 56.9293 1.92194 56.1606 1.7131C55.1991 1.45149 54.3834 1.76818 53.4871 1.66109C52.5399 1.54788 51.4976 1.65803 50.5204 1.62819C49.3791 1.59377 48.2182 1.81025 47.0561 1.53716C46.7903 1.47444 46.1024 1.38877 45.5929 1.66109C45.2633 1.83703 44.6145 1.69627 44.1389 1.54558C43.8679 1.45991 43.5292 1.27632 43.3233 1.61825C43.2517 1.73682 42.9898 1.69398 42.8113 1.68863C41.1488 1.64196 39.4798 1.67639 37.82 1.67639C36.6917 1.67639 35.5217 1.70239 34.383 1.71769C33.2638 1.73299 32.1225 1.71004 31.002 1.746C28.7884 1.8179 26.5775 1.71846 24.3704 1.76665C21.6839 1.82479 18.996 1.83091 16.3108 1.87221C14.0373 1.90664 11.8289 1.67256 9.58794 1.59377C8.60818 1.55935 7.60627 1.60525 6.62781 1.67945C4.72561 1.82326 2.82081 1.79878 0.917308 1.7437C0.393552 1.7284 -0.027281 1.5081 0.00138229 1.16157C0.0274398 0.84871 0.311462 0.654413 0.925117 0.657472C3.15173 0.668182 5.29237 0.302538 7.4799 0.138074C8.50787 0.0608137 9.53193 0.0807026 10.5404 0.133484C12.5976 0.241342 14.6509 0.225277 16.7095 0.2444C19.3686 0.268879 22.0304 0.278824 24.6844 0.250521C27.3018 0.222983 29.9141 0.320896 32.5251 0.278824C36.0207 0.222218 39.5202 0.292593 43.0093 0.196974C44.7721 0.148782 46.5466 0.297946 48.299 0.102884C48.4215 0.0891152 48.5739 0.0898807 48.6521 0.222982C48.1323 0.275763 47.6163 0.328545 47.1004 0.381327C51.2422 0.515193 55.3801 0.533551 59.5194 0.39433C59.4907 0.229866 59.0699 0.388212 59.0816 0.152608C60.3207 0.0998263 61.6587 -0.141899 62.8052 0.177084C64.7244 0.710254 66.6826 0.217629 68.5874 0.418045C68.6799 0.42799 68.8024 0.346139 68.9014 0.309422C68.8232 0.112065 68.4298 0.181675 68.2435 0.00573652C68.8141 -0.0302161 69.2727 0.108241 69.6128 0.269645C69.9203 0.41575 70.203 0.467001 70.5548 0.453232C71.4603 0.419575 72.3657 0.383621 73.2699 0.334664C73.8315 0.304831 74.3761 0.374441 74.9246 0.38974C76.1493 0.424928 77.3805 0.389741 78.6078 0.359908C79.7257 0.333135 80.8631 0.180909 81.9523 0.262758C82.8604 0.330839 83.7425 0.316306 84.6375 0.311716C85.5665 0.307127 86.5072 0.336195 87.4022 0.173261C87.7214 0.115889 87.8335 0.244401 88.0328 0.288003C88.8628 0.469296 89.694 0.274235 90.5291 0.305598C91.7486 0.349965 93.0007 0.229867 94.1954 0.340785C94.9576 0.41116 95.6612 0.175555 96.3752 0.318601C96.3856 0.353788 96.4012 0.379796 96.3921 0.382856C95.742 0.62152 96.1302 0.870129 96.3895 1.10267ZM101.023 0.948155L101.069 0.951213L101.051 0.92291L101.023 0.948155ZM58.7937 0.160255L58.7494 0.157197L58.765 0.184734L58.7937 0.160255ZM65.5713 0.131189L65.566 0.157961L65.6142 0.147253L65.5713 0.131189ZM100.181 0.477711C100.174 0.467767 100.169 0.449406 100.161 0.449406C100.139 0.447876 100.116 0.453996 100.094 0.457056C100.1 0.46853 100.105 0.488419 100.112 0.488419C100.135 0.488419 100.157 0.482301 100.181 0.477711ZM51.4116 0.252816C51.392 0.248991 51.3725 0.244401 51.353 0.240577C51.3504 0.255875 51.3477 0.270409 51.3438 0.285708C51.3647 0.283413 51.3881 0.283413 51.4051 0.278058C51.4129 0.274998 51.4103 0.26123 51.4116 0.252816ZM99.6753 0.526667C99.7092 0.504483 99.7444 0.482301 99.7822 0.458588C99.7301 0.450938 99.674 0.431813 99.6363 0.440227C99.6037 0.447877 99.5711 0.486124 99.5724 0.509838C99.5763 0.5565 99.6206 0.561854 99.6753 0.526667ZM64.3895 0.141897C64.3726 0.131188 64.357 0.11283 64.3387 0.1113C64.2905 0.109005 64.241 0.114359 64.1928 0.117418C64.211 0.133482 64.2306 0.149546 64.2514 0.16714C64.297 0.158725 64.3426 0.150312 64.3895 0.141897ZM100.94 0.717904C100.877 0.745442 100.883 0.77145 100.961 0.776804C101.004 0.779099 101.075 0.766861 101.089 0.749267C101.107 0.728614 101.077 0.694956 101.067 0.665888C101.024 0.683482 100.982 0.70031 100.94 0.717904ZM101.624 1.45455L101.626 1.45379C101.632 1.46143 101.645 1.46602 101.657 1.47061C101.666 1.55705 101.501 1.67103 101.76 1.71234C101.816 1.72075 101.965 1.65191 101.985 1.60601C102.069 1.42089 101.774 1.51345 101.657 1.47061C101.656 1.46067 101.654 1.45073 101.648 1.44155C101.636 1.44231 101.624 1.44308 101.613 1.44384C101.57 1.41018 101.606 1.32298 101.455 1.36658C101.408 1.38035 101.393 1.42854 101.361 1.46067C101.446 1.45531 101.529 1.4492 101.613 1.44384C101.618 1.4469 101.618 1.45226 101.624 1.45455ZM98.2969 0.086821C98.4923 0.0891158 98.6578 0.090647 98.8233 0.0929419C98.6578 0.0715233 98.4923 -0.018742 98.2969 0.086821ZM52.9399 0.219158C52.9425 0.206154 52.9438 0.193915 52.9451 0.180911C52.876 0.170966 52.7952 0.144957 52.7392 0.155666C52.6558 0.17173 52.4721 0.0822316 52.5099 0.211508C52.5151 0.227572 52.79 0.216863 52.9399 0.219158ZM100.462 1.28703C100.473 1.29009 100.483 1.29315 100.492 1.29621C100.525 1.46985 100.716 1.56853 101.002 1.63967C101.05 1.40024 100.736 1.36658 100.492 1.29621C100.492 1.28856 100.486 1.28244 100.486 1.27479C100.478 1.27326 100.473 1.27096 100.465 1.26943C100.487 1.13251 100.57 0.974927 100.167 0.983342C100.167 0.980282 100.165 0.977222 100.167 0.974163C100.156 0.974928 100.147 0.977221 100.137 0.977986C99.4291 1.03153 98.891 1.40712 98.108 1.32833C97.9555 1.31227 97.8891 1.38264 97.9243 1.47061C97.9256 1.47291 97.9243 1.4752 97.9256 1.47826C97.9308 1.47214 97.9347 1.46679 97.9386 1.4622C97.9334 1.4645 97.9295 1.46755 97.9243 1.47061C97.9165 1.4752 97.9099 1.47903 97.9034 1.48362C98.4597 1.48974 99.0174 1.49662 99.5972 1.50351C99.5359 1.61289 99.4643 1.73988 99.3666 1.91582C99.076 1.51957 98.4467 1.7873 98.0207 1.57006C98.0559 1.88216 98.4168 1.89822 98.7516 1.94871C98.1119 2.13153 97.1491 1.79878 97.0657 1.375C97.0292 1.18605 96.9901 0.962688 97.1256 0.804344C97.3901 0.498364 97.0696 0.509073 96.6761 0.500659C97.1829 0.360673 97.6585 0.312482 98.2552 0.343845C98.035 0.464707 98.164 0.662062 97.8226 0.727083C97.3836 0.945094 98.1575 0.900727 98.0454 1.0476C98.0038 1.05754 97.9621 1.06825 97.9204 1.07896C97.9438 1.09196 97.966 1.10573 97.9881 1.1195C98.009 1.09579 98.0285 1.07208 98.0481 1.04913C98.5041 1.09732 98.9627 1.0323 99.3353 0.922147C99.6897 0.817349 99.889 0.886957 100.137 0.977986C100.14 0.979516 100.146 0.981047 100.15 0.983342C100.156 0.982577 100.16 0.983342 100.167 0.983342C100.125 1.12792 100.237 1.21895 100.465 1.26943C100.465 1.27479 100.462 1.28091 100.462 1.28703ZM100.65 0.504483C100.969 0.470825 101.165 0.447112 101.312 0.299477C100.965 0.210743 100.806 0.278823 100.65 0.504483ZM97.6207 0.628406C97.5973 0.666654 97.5738 0.7049 97.5503 0.743912C97.6389 0.737028 97.7262 0.730144 97.8148 0.723259C97.7484 0.691896 97.6845 0.659769 97.6207 0.628406ZM97.5178 0.757681C97.4018 0.76227 97.2572 0.736264 97.2481 0.847946C97.2468 0.87013 97.2976 0.914495 97.3132 0.912965C97.4605 0.896136 97.5008 0.831116 97.5178 0.757681ZM46.3447 0.361437C45.9486 0.333134 45.6737 0.290298 45.2607 0.388977C45.6776 0.447878 45.9538 0.48077 46.3447 0.361437ZM62.83 0.288003C61.7734 0.143428 61.2613 0.16714 60.8066 0.40198C61.5115 0.356083 62.2072 0.615401 62.83 0.288003ZM71.4042 1.42089C71.3886 1.41554 71.3729 1.41095 71.3573 1.40559C71.356 1.42395 71.3534 1.44231 71.3508 1.45991C71.3677 1.45608 71.3886 1.45455 71.399 1.44767C71.4068 1.44231 71.4029 1.43007 71.4042 1.42089ZM73.2361 1.29927C72.7866 1.31992 72.4166 1.21512 72.2667 1.48591C72.5964 1.53258 72.8595 1.4492 73.2361 1.29927ZM80.183 0.978752C80.1413 0.963453 80.1009 0.93668 80.0579 0.935915C80.0149 0.93515 79.9706 0.958865 79.9263 0.972634C79.9667 0.987933 80.0084 1.004 80.0501 1.02006C80.0957 1.00629 80.1387 0.992521 80.183 0.978752ZM84.3809 1.29468C84.3092 1.28167 84.2376 1.25872 84.1646 1.25872C84.0994 1.25872 83.9965 1.26331 84.0421 1.35281C84.0773 1.37117 84.1333 1.40024 84.1906 1.42931C84.2532 1.38417 84.317 1.33904 84.3809 1.29468ZM84.8734 1.22201C84.8603 1.21206 84.8473 1.20288 84.8343 1.1937C84.8173 1.20135 84.8004 1.209 84.7848 1.21589C84.7978 1.22583 84.8095 1.2419 84.8239 1.24266C84.8395 1.24343 84.8564 1.22966 84.8734 1.22201ZM88.623 1.40865C88.6256 1.37347 88.5709 1.33598 88.5423 1.30003C88.4654 1.31533 88.4172 1.32527 88.3677 1.33522C88.4002 1.3727 88.4172 1.42013 88.4667 1.4469C88.5423 1.48668 88.6178 1.45838 88.623 1.40865ZM88.6804 0.888489C88.6621 0.878544 88.6413 0.858656 88.6296 0.860186C88.5892 0.86707 88.5514 0.880838 88.5136 0.891547C88.5527 0.901491 88.5918 0.913731 88.6335 0.91832C88.6452 0.91985 88.6647 0.899198 88.6804 0.888489ZM90.064 1.17993C89.8047 1.08355 89.621 1.12562 89.4894 1.27938C89.75 1.37959 89.9311 1.33139 90.064 1.17993ZM91.3513 1.2702C91.3656 1.12792 91.1858 1.14245 91.0842 1.11185C90.9448 1.07055 90.9135 1.13098 90.9005 1.196C90.8835 1.28932 90.9513 1.34899 91.1154 1.33904C91.2053 1.33369 91.2887 1.28932 91.3513 1.2702ZM92.1095 1.11491C92.0952 1.05372 92.0301 1.00093 91.8646 1.00399C91.8346 1.02924 91.7447 1.07361 91.7604 1.09655C91.7929 1.15087 91.8633 1.2243 91.9428 1.23577C92.0639 1.2526 92.1252 1.17917 92.1095 1.11491ZM92.6633 1.40636C92.6476 1.39641 92.6333 1.38647 92.619 1.37729C92.6007 1.39029 92.5838 1.4033 92.5668 1.4163C92.5812 1.42089 92.5968 1.42625 92.6124 1.4316C92.6294 1.42319 92.6463 1.41477 92.6633 1.40636ZM92.7818 1.05601C92.8261 0.964219 92.6672 0.984871 92.589 0.980281C92.4848 0.974162 92.387 0.99558 92.3571 1.13098C92.3558 1.13098 92.4196 1.15393 92.4887 1.16234C92.6411 1.18146 92.7479 1.12868 92.7818 1.05601ZM94.0899 1.08202C94.1056 0.886194 94.5902 0.753856 94.426 0.576388C94.3075 0.447877 93.7616 0.513664 93.7473 0.611577C93.7121 0.852536 93.1805 1.12409 93.7251 1.3574C94.0808 1.33751 93.4463 0.969573 94.0899 1.08202ZM94.5055 1.2526C94.4821 1.23501 94.4573 1.21818 94.4313 1.20212C94.4 1.21512 94.3661 1.22813 94.3374 1.24342C94.3348 1.24495 94.3661 1.27555 94.3765 1.27479C94.4208 1.27096 94.4625 1.26025 94.5055 1.2526Z" fill="url(#paint0_linear_83_7391)"/>
<defs>
<linearGradient id="paint0_linear_83_7391" x1="7.94218e-05" y1="1.00017" x2="102" y2="1.00017" gradientUnits="userSpaceOnUse">
<stop stop-color="#BE9636"/>
<stop offset="1" stop-color="#F4CC6C"/>
</linearGradient>
</defs>
</svg>
