<svg width="24" height="24" viewBox="0 0 24 24" fill="none" xmlns="http://www.w3.org/2000/svg">
<path d="M17.8336 18.8946L5.10566 6.16667C4.81574 5.87676 4.81574 5.39593 5.10566 5.10601C5.39557 4.8161 5.8764 4.8161 6.16632 5.10601L18.8942 17.8339C19.1842 18.1239 19.1842 18.6047 18.8942 18.8946C18.6043 19.1845 18.1235 19.1845 17.8336 18.8946Z" fill="black"/>
<path d="M5.10565 17.8336L17.8336 5.10566C18.1235 4.81574 18.6043 4.81574 18.8942 5.10566C19.1841 5.39557 19.1841 5.8764 18.8942 6.16632L6.16631 18.8942C5.87639 19.1842 5.39556 19.1842 5.10565 18.8942C4.81573 18.6043 4.81573 18.1235 5.10565 17.8336Z" fill="black"/>
</svg>
