<svg width="193" height="31" viewBox="0 0 193 31" fill="none" xmlns="http://www.w3.org/2000/svg">
<path d="M192.605 12.5481H190.753V11.9434H192.605V12.5481ZM190.148 12.5481H171.628V11.9434H190.148V12.5481ZM171.024 12.5481H170.684V11.9434H171.024V12.5481ZM170.041 12.5481H151.484V11.9434H170.041V12.5481ZM150.879 12.5481H150.539V11.9434H150.879V12.5481ZM149.896 12.5481H131.339V11.9434H149.896V12.5481ZM130.734 12.5481H130.394V11.9434H130.734V12.5481ZM129.751 12.5481H111.194V11.9434H129.751V12.5481ZM110.589 12.5481H110.249V11.9434H110.589V12.5481ZM109.606 12.5481H90.8599V11.9434H109.606V12.5481ZM90.2552 12.5481H89.9151V11.9434H90.2552V12.5481ZM89.3103 12.5481H70.7528V11.9434H89.3103V12.5481ZM70.1481 12.5481H69.808V11.9434H70.1481V12.5481ZM69.1654 12.5481H50.608V11.9434H69.1654V12.5481ZM49.5875 12.5481H41.8017L41.5749 12.1701V11.9434H50.0032V12.1701L49.8899 12.0945L49.6253 12.5481H49.5875ZM40.9702 12.5481H24.7938C24.7938 12.3213 24.7938 12.1323 24.7938 11.9434H40.9702V12.5481ZM21.5812 12.5481H21.2032V11.9434H21.5812V12.5481ZM18.0662 12.5481H4.7623V11.9434H18.0662V12.5481ZM1.5497 12.5481H0.0756836V11.9434H1.5497V12.5481Z" fill="#CDCDCD"/>
<path d="M50.381 30.2364C50.2676 29.3671 50.192 28.46 50.0786 27.5907V27.4773H50.6833V27.5907C50.57 28.46 50.4944 29.3671 50.381 30.2364ZM50.6833 26.8726H50.381L50.0786 26.3434V14.3245V13.0773L50.381 12.5482H50.6833V14.3245V14.7781V14.8159C50.6077 15.0804 50.57 15.345 50.5322 15.6096C50.4944 15.8741 50.4566 16.2521 50.4566 16.7056C50.4188 17.1592 50.4188 17.6127 50.4188 18.1041C50.4188 18.5954 50.4188 19.1623 50.4188 19.8804C50.4188 20.7875 50.4188 21.4678 50.4188 22.0348C50.4188 22.5639 50.4566 23.093 50.4944 23.5466C50.5322 24.0379 50.57 24.3781 50.6455 24.6427C50.6833 24.7182 50.6833 24.7938 50.7211 24.8694V26.8348L50.6833 26.8726ZM50.6833 11.9434H50.0786V11.6789C50.192 10.8096 50.2676 9.90249 50.381 9.0332C50.4944 9.90249 50.57 10.8096 50.6833 11.6789V11.9434Z" fill="#CDCDCD"/>
<path d="M50.6833 12.5481H50.381L50.4944 12.3969L50.0786 12.1701V11.9434H50.6833V12.5481Z" fill="#CDCDCD"/>
<path d="M41.3861 30.2363C41.3105 29.3292 41.2349 28.3843 41.1593 27.4773H41.6128C41.5372 28.3843 41.4616 29.3292 41.3861 30.2363ZM41.1971 26.8725H41.0837C41.0837 26.7214 41.0459 26.608 41.0459 26.4568V23.1308C41.2349 22.1481 41.3483 20.9387 41.3483 19.578C41.3483 18.482 41.2349 17.4615 41.0459 16.5544V12.5481H41.1593L41.6506 13.3418V26.041L41.1593 26.8347L41.1971 26.8725ZM41.6884 11.9434H41.0837V7.89931C41.1215 7.82372 41.1215 7.74812 41.1215 7.63474C41.1215 7.48356 41.1215 7.33238 41.0837 7.1434V3.81742C41.0837 3.70403 41.1215 3.55285 41.1215 3.43946H41.6884C41.6884 3.55285 41.7262 3.70403 41.7262 3.81742V7.59694V11.9056L41.6884 11.9434ZM41.6128 2.83474H41.1593C41.2349 1.92765 41.3105 0.98277 41.3861 0.0756836C41.4616 0.98277 41.5372 1.92765 41.6128 2.83474Z" fill="#CDCDCD"/>
<path d="M41.1969 12.5481H41.0835V11.9434H41.6882V12.1701L41.6504 12.0945L41.1213 12.3969L41.1969 12.5481Z" fill="#CDCDCD"/>
<path d="M21.9969 30.2363C21.9213 29.3292 21.8457 28.3843 21.7701 27.4773H22.2237C22.1481 28.3843 22.0725 29.3292 21.9969 30.2363ZM22.2615 26.8725H21.7323C21.7323 26.7214 21.6945 26.608 21.6945 26.4568V12.5481H21.9969C21.9969 13.3418 21.9969 14.2489 21.9969 15.2694C21.9969 17.9151 22.0347 19.8426 22.1103 21.0521C22.1481 21.8836 22.2237 22.5639 22.2993 23.1308V26.4568C22.2993 26.608 22.2615 26.7214 22.2615 26.8725ZM21.9969 11.9434H21.6567V7.63474V3.85521C21.6567 3.74183 21.6945 3.59064 21.6945 3.47726H22.2615C22.2615 3.59064 22.2993 3.74183 22.2993 3.85521V7.37017C22.1859 7.9749 22.1481 8.7308 22.0725 9.63789C22.0347 10.2426 22.0347 10.9985 21.9969 11.9434ZM22.1859 2.83474H21.7323C21.8079 1.92765 21.8835 0.98277 21.9591 0.0756836C22.0347 0.98277 22.1103 1.92765 22.1859 2.83474Z" fill="#CDCDCD"/>
<path d="M21.9967 12.5481H21.6943V11.9434H22.0345C22.0345 12.1323 22.0345 12.3213 22.0345 12.5481H21.9967Z" fill="#CDCDCD"/>
<path d="M21.0143 30.2363C20.9387 29.3292 20.8631 28.3843 20.7875 27.4773H21.241C21.1655 28.3843 21.0899 29.3292 21.0143 30.2363ZM21.2788 26.8725H20.7497C20.7497 26.7214 20.7119 26.608 20.7119 26.4568V24.0757C20.7497 24.0001 20.7497 23.8867 20.7875 23.8111C20.9765 23.0174 21.0521 19.9938 21.0143 14.7403V12.5859H21.3544V26.4946C21.3544 26.6458 21.3166 26.7591 21.3166 26.9103L21.2788 26.8725ZM21.3166 11.9434H20.9765L20.9387 6.84104L20.7119 6.46309V3.85521C20.7119 3.74183 20.7497 3.59064 20.7497 3.47726H21.3166C21.3166 3.59064 21.3544 3.74183 21.3544 3.85521V7.63474V11.9434H21.3166ZM21.241 2.83474H20.7875C20.8631 1.92765 20.9387 0.98277 21.0143 0.0756836C21.0899 0.98277 21.1655 1.92765 21.241 2.83474Z" fill="#CDCDCD"/>
<path d="M21.3167 12.5481H20.9766V11.9434H21.3167V12.5481Z" fill="#CDCDCD"/>
<path d="M69.5431 30.2364C69.4297 29.3671 69.3541 28.46 69.2407 27.5907V27.4773H69.8454V27.5907C69.7321 28.46 69.6565 29.3671 69.5431 30.2364ZM69.8454 26.8726H69.2407V24.756C69.4675 24.3025 69.5053 24.0001 69.3541 23.849C69.3541 23.849 69.3163 23.8112 69.2407 23.8112V15.6096H69.5431L69.3919 15.0804C69.3541 14.9671 69.3163 14.8537 69.2407 14.7403V14.3245V12.5482H69.8454V14.3245V26.8726ZM69.8454 11.9434H69.2407V11.6789C69.3541 10.8096 69.4297 9.90249 69.5431 9.0332C69.6565 9.90249 69.7321 10.8096 69.8454 11.6789V11.9434Z" fill="#CDCDCD"/>
<path d="M69.8454 12.5481H69.2407V11.9434H69.8454V12.5481Z" fill="#CDCDCD"/>
<path d="M70.526 30.2364C70.4126 29.3671 70.337 28.46 70.2236 27.5907V27.4773H70.8284V27.5907C70.715 28.46 70.6394 29.3671 70.526 30.2364ZM70.8284 26.8726H70.2236V14.3245V12.5482H70.8284V14.3245V26.8726ZM70.8284 11.9434H70.2236V11.6789C70.337 10.8096 70.4126 9.90249 70.526 9.0332C70.6394 9.90249 70.715 10.8096 70.8284 11.6789V11.9434Z" fill="#CDCDCD"/>
<path d="M70.8284 12.5481H70.2236V11.9434H70.8284V12.5481Z" fill="#CDCDCD"/>
<path d="M89.6881 30.2364C89.5747 29.3671 89.4991 28.46 89.3857 27.5907V27.4773H89.9905V27.5907C89.8771 28.46 89.8015 29.3671 89.6881 30.2364ZM89.9905 26.8726H89.3857V14.3245V12.5482H89.9905V14.3245V26.8726ZM89.9905 11.9434H89.3857V11.6789C89.4991 10.8096 89.5747 9.90249 89.6881 9.0332C89.8015 9.90249 89.8771 10.8096 89.9905 11.6789V11.9434Z" fill="#CDCDCD"/>
<path d="M89.9907 12.5481H89.3859L89.3481 11.9434H89.9907V12.5481Z" fill="#CDCDCD"/>
<path d="M90.6329 30.2364C90.5195 29.3671 90.444 28.46 90.3306 27.5907V27.4773H90.9353V27.5907C90.8219 28.46 90.7463 29.3671 90.6329 30.2364ZM90.9353 26.8726H90.3306V14.3245V12.5482H90.9353V14.3245V26.8726ZM90.9353 11.9434H90.3306V11.6789C90.444 10.8096 90.5195 9.90249 90.6329 9.0332C90.7463 9.90249 90.8219 10.8096 90.9353 11.6789V11.9434Z" fill="#CDCDCD"/>
<path d="M90.9353 12.5481H90.3306V11.9434H90.9353V12.5481Z" fill="#CDCDCD"/>
<path d="M109.984 30.2364C109.871 29.3671 109.796 28.46 109.682 27.5907V27.4773H110.287V27.5907C110.173 28.46 110.098 29.3671 109.984 30.2364ZM110.287 26.8726H109.682V14.3245V12.5482H110.287V14.3245V26.8726ZM110.287 11.9434H109.682V11.6789C109.796 10.8096 109.871 9.90249 109.984 9.0332C110.098 9.90249 110.173 10.8096 110.287 11.6789V11.9434Z" fill="#CDCDCD"/>
<path d="M110.287 12.5481H109.682V11.9434H110.287V12.5481Z" fill="#CDCDCD"/>
<path d="M110.929 30.2364C110.816 29.3671 110.74 28.46 110.627 27.5907V27.4773H111.232V27.5907C111.118 28.46 111.043 29.3671 110.929 30.2364ZM111.232 26.8726H110.627V14.3245V12.5482H111.232V14.3245V26.8726ZM111.232 11.9434H110.627V11.6789C110.74 10.8096 110.816 9.90249 110.929 9.0332C111.043 9.90249 111.118 10.8096 111.232 11.6789V11.9434Z" fill="#CDCDCD"/>
<path d="M111.269 12.5481H110.627V11.9434H111.269V12.5481Z" fill="#CDCDCD"/>
<path d="M130.129 30.2364C130.016 29.3671 129.94 28.46 129.827 27.5907V27.4773H130.431V27.5907C130.318 28.46 130.242 29.3671 130.129 30.2364ZM130.431 26.8726H129.827V14.3245V12.5482H130.431V14.3245V26.8726ZM130.431 11.9434H129.827V11.6789C129.94 10.8096 130.016 9.90249 130.129 9.0332C130.242 9.90249 130.318 10.8096 130.431 11.6789V11.9434Z" fill="#CDCDCD"/>
<path d="M130.431 12.5481H129.827V11.9434H130.431V12.5481Z" fill="#CDCDCD"/>
<path d="M131.074 30.2364C130.96 29.3671 130.885 28.46 130.771 27.5907V27.4773H131.376V27.5907C131.263 28.46 131.187 29.3671 131.074 30.2364ZM131.376 26.8726H130.771V14.3245V12.5482H131.376V14.3245V26.8726ZM131.376 11.9434H130.771V11.6789C130.885 10.8096 130.96 9.90249 131.074 9.0332C131.187 9.90249 131.263 10.8096 131.376 11.6789V11.9434Z" fill="#CDCDCD"/>
<path d="M131.376 12.5481H130.771V11.9434H131.376V12.5481Z" fill="#CDCDCD"/>
<path d="M150.236 30.2364C150.123 29.3671 150.047 28.46 149.934 27.5907V27.4773H150.539V27.5907C150.425 28.46 150.35 29.3671 150.236 30.2364ZM150.539 26.8726H149.934V14.3245V12.5482H150.539V14.3245V26.8726ZM150.539 11.9434H149.934V11.6789C150.047 10.8096 150.123 9.90249 150.236 9.0332C150.35 9.90249 150.425 10.8096 150.539 11.6789V11.9434Z" fill="#CDCDCD"/>
<path d="M149.934 12.5481H150.539V11.9434H149.934V12.5481Z" fill="#CDCDCD"/>
<path d="M151.219 30.2364C151.105 29.3671 151.03 28.46 150.917 27.5907V27.4773H151.521V27.5907C151.408 28.46 151.332 29.3671 151.219 30.2364ZM151.521 26.8726H150.917V14.3245V12.5482H151.521V14.3245V26.8726ZM151.521 11.9434H150.917V11.6789C151.03 10.8096 151.105 9.90249 151.219 9.0332C151.332 9.90249 151.408 10.8096 151.521 11.6789V11.9434Z" fill="#CDCDCD"/>
<path d="M150.917 12.5481H151.521V11.9434H150.917V12.5481Z" fill="#CDCDCD"/>
<path d="M170.343 30.2364C170.23 29.3671 170.154 28.46 170.041 27.5907V27.4773H170.646V27.5907C170.532 28.46 170.457 29.3671 170.343 30.2364ZM170.646 26.8726H170.041V14.3245V12.5482H170.646V14.3245V26.8726ZM170.646 11.9434H170.041V11.6789C170.154 10.8096 170.23 9.90249 170.343 9.0332C170.457 9.90249 170.532 10.8096 170.646 11.6789V11.9434Z" fill="#CDCDCD"/>
<path d="M170.684 12.5481H170.041V11.9434H170.684V12.5481Z" fill="#CDCDCD"/>
<path d="M171.326 30.2364C171.212 29.3671 171.137 28.46 171.023 27.5907V27.4773H171.628V27.5907C171.515 28.46 171.439 29.3671 171.326 30.2364ZM171.628 26.8726H171.023V14.3245V12.5482H171.628V14.3245V26.8726ZM171.628 11.9434H171.023V11.6789C171.137 10.8096 171.212 9.90249 171.326 9.0332C171.439 9.90249 171.515 10.8096 171.628 11.6789V11.9434Z" fill="#CDCDCD"/>
<path d="M171.628 12.5481H171.023V11.9434H171.628V12.5481Z" fill="#CDCDCD"/>
<path d="M190.45 30.2364C190.337 29.3671 190.261 28.46 190.148 27.5907V27.4773H190.753V27.5907C190.639 28.46 190.564 29.3671 190.45 30.2364ZM190.753 26.8726H190.148V14.3245V12.5482H190.753V14.3245V26.8726ZM190.753 11.9434H190.148V11.6789C190.261 10.8096 190.337 9.90249 190.45 9.0332C190.564 9.90249 190.639 10.8096 190.753 11.6789V11.9434Z" fill="#CDCDCD"/>
<path d="M190.753 12.5481H190.148V11.9434H190.753V12.5481Z" fill="#CDCDCD"/>
<path d="M192.605 27.4773H190.753V26.8726H192.605V27.4773ZM190.148 27.4773H171.628V26.8726H190.148V27.4773ZM171.024 27.4773H170.646V26.8726H171.024V27.4773ZM170.041 27.4773H151.484V26.8726H170.041V27.4773ZM150.879 27.4773H150.501V26.8726H150.879V27.4773ZM149.896 27.4773H131.339V26.8726H149.896V27.4773ZM130.734 27.4773H130.356V26.8726H130.734V27.4773ZM129.751 27.4773H111.194V26.8726H129.751V27.4773ZM110.589 27.4773H110.211V26.8726H110.589V27.4773ZM109.606 27.4773H90.8599V26.8726H109.606V27.4773ZM90.2552 27.4773H89.915V26.8726H90.2552V27.4773ZM89.3103 27.4773H70.7528V26.8726H89.3103V27.4773ZM70.1481 27.4773H69.7701V26.8726H70.1481V27.4773ZM69.1654 27.4773H50.6079V26.8726H69.1654V27.4773ZM50.0032 27.4773H41.4993C41.4993 27.4395 41.4993 27.3639 41.4993 27.3261H41.5371L41.8016 26.8726H49.5875L49.852 27.3261L49.9654 27.2505V27.4773H50.0032ZM41.0457 27.4773H22.1103C22.1103 27.2883 22.1481 27.0615 22.1481 26.8726H41.0079C41.0079 26.9104 41.0079 26.9859 41.0079 27.0237C41.0079 27.1749 41.0457 27.3261 41.0457 27.4773ZM21.6568 27.4773H21.1276C21.1276 27.2883 21.1654 27.0615 21.1654 26.8726H21.5812C21.5812 27.0615 21.619 27.2883 21.619 27.4773H21.6568ZM20.6741 27.4773H2.04102C2.04102 27.2883 2.07881 27.0615 2.07881 26.8726H20.5985C20.5985 27.0615 20.6363 27.2883 20.6363 27.4773H20.6741Z" fill="#CDCDCD"/>
<path d="M50.6833 27.4773H50.0786V27.2505L50.2298 27.1749L50.4944 27.0237L50.381 26.8726H50.6833V27.4773Z" fill="#CDCDCD"/>
<path d="M41.6124 27.4773H41.1589C41.1589 27.3261 41.1211 27.1749 41.1211 27.0237L41.3857 27.1749L41.6124 27.3261C41.6124 27.3639 41.6124 27.4395 41.6124 27.4773ZM41.1211 27.0237C41.1211 26.9859 41.1211 26.9104 41.1211 26.8726H41.2345L41.1589 27.0237H41.1211Z" fill="#CDCDCD"/>
<path d="M22.2238 27.4773H21.7702C21.7702 27.2883 21.7324 27.0615 21.7324 26.8726H22.2616C22.2616 27.0615 22.2238 27.2883 22.2238 27.4773Z" fill="#CDCDCD"/>
<path d="M21.2409 27.4773H20.7873C20.7873 27.2883 20.7495 27.0615 20.7495 26.8726H21.2786C21.2786 27.0615 21.2409 27.2883 21.2409 27.4773Z" fill="#CDCDCD"/>
<path d="M69.2407 27.4773H69.8454V26.8726H69.2407V27.4773Z" fill="#CDCDCD"/>
<path d="M70.2236 27.4773H70.8284V26.8726H70.2236V27.4773Z" fill="#CDCDCD"/>
<path d="M89.3857 27.4773H89.9905V26.8726H89.3857V27.4773Z" fill="#CDCDCD"/>
<path d="M90.3306 27.4773H90.9353V26.8726H90.3306V27.4773Z" fill="#CDCDCD"/>
<path d="M109.682 27.4773H110.287V26.8726H109.682V27.4773Z" fill="#CDCDCD"/>
<path d="M110.627 27.4773H111.269V26.8726H110.627V27.4773Z" fill="#CDCDCD"/>
<path d="M129.827 27.4773H130.431V26.8726H129.827V27.4773Z" fill="#CDCDCD"/>
<path d="M130.771 27.4773H131.376V26.8726H130.771V27.4773Z" fill="#CDCDCD"/>
<path d="M1.73877 27.4773H0.151367V26.8726H1.66318C1.66318 27.0615 1.70097 27.2883 1.70097 27.4773H1.73877Z" fill="#CDCDCD"/>
<path d="M149.934 27.4773H150.539V26.8726H149.934V27.4773Z" fill="#CDCDCD"/>
<path d="M150.917 27.4773H151.521V26.8726H150.917V27.4773Z" fill="#CDCDCD"/>
<path d="M170.041 27.4773H170.684V26.8726H170.041V27.4773Z" fill="#CDCDCD"/>
<path d="M171.023 27.4773H171.628V26.8726H171.023V27.4773Z" fill="#CDCDCD"/>
<path d="M190.148 27.4773H190.753V26.8726H190.148V27.4773Z" fill="#CDCDCD"/>
<path d="M78.1227 19.9558C77.8959 19.8424 77.6692 19.7668 77.4424 19.6534C77.6692 19.5401 77.8959 19.4645 78.1227 19.3511H78.803H79.7479V19.9558H78.803H78.1227ZM82.2802 19.9558H80.3904V19.3511H82.2802C82.5069 19.4645 82.7337 19.5401 82.9605 19.6534C82.7337 19.7668 82.5069 19.8424 82.2802 19.9558Z" fill="#CDCDCD"/>
<path d="M80.088 21.5811C79.9746 21.43 79.899 21.241 79.7856 21.0898V20.5985V19.9559H80.3904V20.5985V21.0898C80.277 21.241 80.2014 21.43 80.088 21.5811ZM80.3904 19.3512H79.7856V18.6709V18.1796C79.899 18.0284 79.9746 17.8394 80.088 17.6882C80.2014 17.8394 80.277 18.0284 80.3904 18.1796V18.6709V19.3512Z" fill="#CDCDCD"/>
<path d="M80.3904 19.9558H79.7856V19.3511H80.3904V19.9558Z" fill="#CDCDCD"/>
<path d="M17.5369 8.80637C17.1589 8.5796 15.118 8.46621 11.4518 8.46621C7.78569 8.46621 5.74474 8.5796 5.36679 8.84417C5.14002 8.99535 4.98883 9.18432 4.91324 9.44889C4.83765 9.71346 4.79986 10.2426 4.79986 10.9985V12.8505H18.1038V11.0363C18.1038 10.2426 18.066 9.71346 17.9904 9.44889C17.9148 9.18432 17.7258 8.99535 17.4613 8.80637H17.5369ZM4.38411 3.96858C4.98883 3.7418 7.36994 3.62842 11.5652 3.62842C15.7605 3.62842 18.1416 3.7418 18.6329 3.96858C18.8975 4.08196 19.1621 4.30873 19.4644 4.6111C19.7668 4.91346 20.0314 5.25361 20.2203 5.59377L20.9384 6.84102L21.014 14.7024C21.0518 19.956 21.014 23.0174 20.7873 23.7733C20.5983 24.4914 20.2959 25.1339 19.8802 25.7009C19.4644 26.23 19.0865 26.5324 18.7085 26.5324C18.444 26.5324 18.2928 26.4568 18.255 26.2678C18.1794 25.8142 18.1416 24.4158 18.1416 22.1103V17.6505H4.83765V22.1103C4.83765 24.567 4.79986 25.9276 4.68647 26.2678C4.64868 26.4568 4.4975 26.5324 4.30852 26.5324C3.93057 26.5324 3.55261 26.23 3.09907 25.6631C2.64553 25.0961 2.34317 24.4536 2.15419 23.7733C1.96521 22.9796 1.88962 19.956 1.92742 14.7024L2.00301 6.76543L2.75891 5.51818C2.98569 5.17802 3.21246 4.87566 3.51482 4.5355C3.81718 4.23314 4.08175 4.04417 4.30852 3.93078L4.38411 3.96858Z" fill="white"/>
<path d="M24.3401 3.96853C24.8314 3.70396 27.2503 3.59058 31.6346 3.59058C36.0188 3.59058 38.4755 3.74176 39.0047 3.96853C39.496 4.1953 39.9495 4.68664 40.4409 5.48034C40.8944 6.27404 41.1212 6.99215 41.1212 7.59688C41.1212 7.86144 41.0456 8.01262 40.8566 8.08821C40.4409 8.2394 38.5133 8.31499 35.0361 8.31499H33.5243C33.033 8.31499 32.3905 8.31499 31.5212 8.31499C28.7999 8.27719 27.1369 8.39058 26.4566 8.57955C25.7007 8.76853 25.2472 9.25987 25.0582 9.97798C24.907 10.5071 24.8692 11.641 24.8692 13.4551V13.5685C24.8692 14.211 24.8692 14.7402 24.8692 15.1559C24.8692 18.6331 24.907 20.5607 25.0204 21.0142C25.0582 21.1654 25.1338 21.2788 25.285 21.3544C25.4361 21.4299 25.7385 21.5055 26.2676 21.5433C26.7968 21.5811 27.4393 21.6189 28.233 21.6567C29.0267 21.6945 30.1606 21.6945 31.7102 21.6945H38.211L38.3621 20.2583C38.4755 19.2756 38.5133 18.6331 38.3999 18.3685C38.2487 17.9906 37.7574 17.726 36.8881 17.6882C36.4724 17.6504 35.5653 17.6504 34.2047 17.6504C32.1259 17.6504 30.9165 17.5748 30.5763 17.4236C30.2739 17.2725 30.1984 16.9701 30.3117 16.5544C30.3495 16.3276 30.5007 15.9496 30.6897 15.3827C30.9165 14.778 31.1054 14.3244 31.3322 13.9843C31.559 13.6819 31.8613 13.4173 32.2771 13.2284C32.6928 13.0394 33.1842 12.926 33.7133 12.8882C34.2424 12.8504 35.0361 12.8504 36.0188 12.8882C37.1527 12.926 37.9464 12.9638 38.3621 13.0394C38.7779 13.0772 39.118 13.1906 39.3448 13.304C39.5716 13.4173 39.7984 13.6441 40.0251 13.9843C40.9322 15.3449 41.348 17.1969 41.348 19.5402C41.348 22.3748 40.9322 24.3402 40.1007 25.474L39.3448 26.4945H31.6724C27.3637 26.4945 24.907 26.4189 24.3023 26.2677C23.8865 26.1922 23.5842 25.9654 23.3196 25.5874C22.9039 25.0583 22.6393 24.4914 22.4503 23.811C22.2613 23.1685 22.148 22.2236 22.0724 20.9764C21.9968 19.767 21.959 17.8394 21.959 15.1937C21.959 12.6614 21.9968 10.8095 22.0346 9.56223C22.1102 8.35278 22.1858 7.4079 22.3747 6.72758C22.5259 6.04727 22.7905 5.48034 23.1306 4.989C23.4708 4.49766 23.8487 4.15751 24.3401 3.93073V3.96853Z" fill="white"/>
<path d="M52.1954 13.1906C52.649 13.0016 53.2915 12.8504 54.123 12.8127C54.9545 12.7749 56.8064 12.7371 59.7545 12.7371C61.5686 12.7371 63.1938 12.7749 64.6301 12.8127C66.0663 12.8504 66.8978 12.926 67.1623 12.9638C67.6537 13.0772 68.1072 13.3796 68.5608 13.7953C69.0143 14.2111 69.3167 14.6646 69.4301 15.0804L69.5812 15.6095H61.871C58.9608 15.6095 56.9198 15.6473 55.7482 15.6851C54.5765 15.7229 53.8962 15.7985 53.745 15.9119C53.556 16.0252 53.4427 16.3276 53.4049 16.7812C53.3671 17.2347 53.3671 18.2552 53.4049 19.8426L53.4805 23.4709L61.3419 23.5465C63.4962 23.5843 65.386 23.6221 66.9734 23.6599C68.5608 23.6977 69.3923 23.7733 69.4301 23.8111C69.619 24.0001 69.5057 24.378 69.2033 24.9449C68.8631 25.5497 68.523 25.9276 68.145 26.1166C67.8049 26.2678 66.4064 26.3812 63.8742 26.4567C61.3419 26.5323 58.7718 26.5323 56.2395 26.4567C53.7072 26.3812 52.271 26.2678 51.9308 26.1166C51.7041 26.0032 51.5151 25.852 51.3639 25.7764C51.2127 25.663 51.0994 25.5119 50.986 25.2851C50.8726 25.0583 50.797 24.8315 50.7214 24.6048C50.6458 24.3402 50.608 24.0001 50.5702 23.5087C50.5324 23.0174 50.4946 22.526 50.4946 21.9969C50.4946 21.4678 50.4946 20.7497 50.4946 19.8426C50.4946 19.1245 50.4946 18.5197 50.4946 18.0662C50.4946 17.6127 50.5324 17.1213 50.5324 16.6678C50.5702 16.2142 50.5702 15.8363 50.608 15.5717C50.6458 15.3071 50.6836 15.0426 50.7592 14.778C50.8348 14.5134 50.9104 14.3245 50.986 14.1733C51.0616 14.0221 51.1749 13.8709 51.3261 13.7575C51.4773 13.6064 51.5907 13.493 51.7419 13.4174C51.8931 13.3418 52.082 13.2284 52.271 13.1528L52.1954 13.1906Z" fill="white"/>
<path d="M86.5136 16.2143C86.4002 16.1009 85.9466 15.9875 85.0774 15.9497C84.2459 15.9119 82.5829 15.8741 80.1262 15.8741C77.6695 15.8741 76.0065 15.9119 75.1372 15.9497C74.3057 15.9875 73.8144 16.1009 73.701 16.2143C73.512 16.441 73.4364 17.7639 73.4742 20.145L73.5498 23.7355H86.627L86.7025 20.145C86.7403 17.7261 86.7025 16.441 86.4758 16.2143H86.5136ZM72.3025 13.4552C72.7561 13.2284 73.3986 13.115 74.2301 13.0395C75.0616 13.0017 77.027 12.9639 80.0884 12.9639C83.1498 12.9639 85.0774 13.0017 85.9466 13.0395C86.7781 13.0773 87.4585 13.2284 87.8742 13.4174C88.1388 13.5308 88.3277 13.6442 88.4789 13.7576C88.6301 13.871 88.7813 13.9843 88.9325 14.1355C89.0837 14.2867 89.197 14.4757 89.2726 14.7024C89.3482 14.9292 89.4238 15.1938 89.4994 15.4584C89.575 15.7229 89.6128 16.1009 89.6128 16.5544C89.6506 17.008 89.6506 17.4993 89.6506 18.0284C89.6506 18.5198 89.6506 19.2001 89.6506 19.9938C89.6506 20.8631 89.6506 21.5434 89.6506 22.0347C89.6506 22.5639 89.6128 23.0174 89.575 23.5087C89.5372 23.9623 89.4994 24.3402 89.4616 24.567C89.4238 24.7938 89.3482 25.0206 89.2348 25.2473C89.1214 25.4741 89.0081 25.6631 88.8569 25.7765C88.7057 25.9276 88.5545 26.0788 88.3277 26.23C88.0632 26.4568 87.6852 26.5702 87.2317 26.6458C86.5892 26.7213 84.2459 26.7591 80.2018 26.7591C76.7624 26.7591 74.6837 26.7213 74.0033 26.6836C72.6427 26.5702 71.7356 26.2678 71.2821 25.8143C70.8663 25.3607 70.6396 24.567 70.6018 23.3576C70.564 23.0174 70.564 21.9213 70.564 20.0316C70.564 19.2757 70.564 18.7087 70.564 18.2174C70.564 17.7639 70.564 17.3103 70.6018 16.819C70.6396 16.3654 70.6396 16.0253 70.6774 15.7607C70.7151 15.4962 70.7529 15.2316 70.8285 15.0048C70.9041 14.7402 70.9797 14.5513 71.0553 14.4379C71.1309 14.3245 71.2443 14.1733 71.3577 14.0599C71.5088 13.9087 71.6222 13.7954 71.7734 13.7198C71.9246 13.6442 72.1136 13.5686 72.3025 13.4552Z" fill="white"/>
<path d="M92.5227 13.3796L92.7495 13.2662C92.9762 13.115 93.1652 13.0772 93.3542 13.1528C93.6943 13.2662 94.7148 13.9843 96.34 15.3071C96.7936 15.6473 97.5873 16.3276 98.7589 17.2725C99.5904 17.9528 100.271 18.4819 100.762 18.8599L106.96 23.8488L106.998 18.5197C107.036 15.5339 107.074 13.8709 107.187 13.5307C107.301 13.3418 107.452 13.2284 107.603 13.1906C107.754 13.1906 107.943 13.2662 108.208 13.4174C108.472 13.5685 108.699 13.7575 108.926 13.9843C109.266 14.3244 109.531 14.7402 109.682 15.1937C109.833 15.6473 109.946 16.3276 109.984 17.1591C110.022 17.9906 110.022 19.2756 109.984 20.9386C109.946 22.2992 109.909 23.2819 109.833 23.8488C109.757 24.4158 109.644 24.8693 109.493 25.2095C109.304 25.5874 108.964 25.9276 108.51 26.23C108.057 26.5701 107.641 26.7213 107.338 26.7213C107.263 26.7213 106.545 26.1922 105.146 25.1717C103.786 24.1134 102.16 22.8662 100.346 21.3922L93.6943 16.063L93.6188 21.3922C93.581 23.3953 93.581 24.7937 93.5054 25.5496C93.4676 26.3055 93.392 26.7213 93.2786 26.7213C92.9384 26.7213 92.5227 26.5323 91.9936 26.1166C91.5022 25.7008 91.1621 25.2851 90.9731 24.9071C90.8219 24.567 90.7463 24.0378 90.7085 23.3197C90.6707 22.6016 90.6707 21.3544 90.7085 19.6158C90.7085 18.9355 90.7463 18.3685 90.7463 17.9528C90.7463 17.537 90.7841 17.1213 90.8219 16.6677C90.8597 16.252 90.8597 15.9118 90.8975 15.6851C90.9353 15.4583 90.9731 15.1937 91.0487 14.967C91.1243 14.7024 91.1999 14.5512 91.2755 14.4C91.351 14.2866 91.4644 14.1355 91.6156 13.9843C91.7668 13.8331 91.8802 13.7197 92.0314 13.6441C92.1825 13.5685 92.3715 13.4551 92.5983 13.3418L92.5227 13.3796Z" fill="white"/>
<path d="M112.743 13.1906C113.197 13.0016 113.84 12.8504 114.671 12.8127C115.503 12.7749 117.354 12.7371 120.303 12.7371C122.117 12.7371 123.742 12.7749 125.178 12.8127C126.614 12.8504 127.446 12.926 127.71 12.9638C128.202 13.0772 128.655 13.3796 129.109 13.7953C129.562 14.2111 129.865 14.6646 129.978 15.0804L130.129 15.6095H122.419C119.509 15.6095 117.468 15.6473 116.296 15.6851C115.125 15.7229 114.444 15.7985 114.293 15.9119C114.104 16.0252 113.991 16.3276 113.953 16.7812C113.915 17.2347 113.915 18.2552 113.953 19.8426L114.029 23.4709L121.89 23.5465C124.044 23.5843 125.934 23.6221 127.521 23.6599C129.109 23.6977 129.94 23.7733 129.978 23.8111C130.167 24.0001 130.054 24.378 129.751 24.9449C129.411 25.5497 129.071 25.9276 128.693 26.1166C128.353 26.2678 126.954 26.3812 124.384 26.4567C121.852 26.5323 119.32 26.5323 116.75 26.4567C114.217 26.3812 112.781 26.2678 112.441 26.1166C112.214 26.0032 112.025 25.852 111.874 25.7764C111.723 25.663 111.61 25.5119 111.496 25.2851C111.383 25.0583 111.307 24.8315 111.232 24.6048C111.156 24.3402 111.118 24.0001 111.08 23.5087C111.043 23.0174 111.005 22.526 111.005 21.9969C111.005 21.4678 111.005 20.7497 111.005 19.8426C111.005 19.1245 111.005 18.5197 111.005 18.0662C111.005 17.6127 111.043 17.1213 111.043 16.6678C111.08 16.2142 111.08 15.8363 111.118 15.5717C111.156 15.3071 111.194 15.0426 111.269 14.778C111.345 14.5134 111.421 14.3245 111.496 14.1733C111.572 14.0221 111.685 13.8709 111.836 13.7575C111.988 13.6064 112.101 13.493 112.252 13.4174C112.403 13.3418 112.592 13.2284 112.781 13.1528L112.743 13.1906Z" fill="white"/>
<path d="M133.493 12.9638C133.946 12.8127 136.327 12.7371 140.636 12.7371C144.945 12.7371 147.326 12.8127 147.817 12.926C148.308 13.0394 148.762 13.3418 149.216 13.7575C149.669 14.1733 149.971 14.6268 150.123 15.0426L150.274 15.5717H142.639C137.537 15.5717 134.816 15.6473 134.513 15.8363C134.324 15.9497 134.211 16.063 134.135 16.252C134.06 16.441 134.022 16.7434 134.022 17.1591V18.2552H150.236V21.1654H133.984L134.06 22.3371L134.135 23.4709L142.11 23.5843L150.123 23.6977L150.047 24.3024C150.047 24.4536 149.934 24.6804 149.745 24.9449C149.556 25.2095 149.367 25.4741 149.14 25.663L148.271 26.4567H140.636C137.31 26.4567 135.156 26.419 134.211 26.3812C133.266 26.3434 132.661 26.23 132.397 26.041C132.17 25.8898 132.019 25.7764 131.905 25.663C131.792 25.5497 131.679 25.3607 131.565 25.1717C131.452 24.9449 131.376 24.7182 131.338 24.4914C131.301 24.2268 131.225 23.8867 131.225 23.3953C131.187 22.904 131.187 22.4127 131.149 21.8835C131.149 21.3544 131.149 20.6363 131.149 19.7292C131.149 18.9355 131.149 18.3308 131.149 17.8394C131.149 17.3481 131.187 16.8945 131.187 16.4032C131.225 15.9119 131.263 15.5339 131.301 15.2693C131.338 15.0048 131.414 14.7402 131.49 14.4756C131.565 14.2111 131.679 14.0221 131.754 13.8709C131.868 13.7575 131.981 13.6064 132.208 13.493C132.397 13.3418 132.586 13.2662 132.775 13.1906C132.964 13.115 133.228 13.0394 133.531 12.9638H133.493Z" fill="white"/>
<path d="M167.433 17.3857L167.357 16.2518L160.932 16.1762C157.72 16.1384 155.83 16.1762 155.263 16.214C154.658 16.2896 154.318 16.4408 154.205 16.7054C154.167 16.8187 154.129 17.1589 154.129 17.688V18.5195H167.471L167.395 17.3479L167.433 17.3857ZM153.6 13.2282C154.167 13.0392 156.775 12.9636 161.423 13.0392C166.072 13.1148 168.567 13.2282 168.869 13.4172C169.398 13.7195 169.814 14.1731 170.041 14.7778C170.268 15.3825 170.381 16.214 170.381 17.3857C170.381 18.255 170.343 18.8597 170.268 19.1999C170.192 19.54 170.079 19.8424 169.852 20.1069C169.512 20.5605 169.172 20.8628 168.869 21.014C168.34 21.2786 167.131 21.4298 165.279 21.4676C164.485 21.4676 163.086 21.4676 161.083 21.4676H154.129V24.151C154.129 25.625 154.091 26.4943 153.978 26.6455C153.94 26.7589 153.827 26.7967 153.675 26.7967C153.335 26.7967 152.957 26.6077 152.504 26.2298C152.05 25.8518 151.748 25.4361 151.559 24.9825C151.332 24.4156 151.219 22.7904 151.219 20.0313C151.219 17.3101 151.332 15.6471 151.559 15.118C151.975 14.1731 152.617 13.5306 153.562 13.266L153.6 13.2282Z" fill="white"/>
<path d="M173.329 13.2283C173.556 13.1527 174.425 13.1149 175.937 13.0771C177.487 13.0393 179.225 13.0393 181.153 13.0393C185.121 13.0771 187.427 13.1527 188.031 13.2283C188.372 13.2661 188.674 13.4173 188.938 13.5684C189.127 13.7196 189.316 13.9086 189.543 14.1732C189.77 14.4377 189.921 14.6645 190.035 14.9291L190.45 15.7606L186.331 15.8362L182.211 15.874V26.7968H179.301V15.874H175.294C173.064 15.874 171.779 15.8362 171.515 15.7606C171.364 15.7228 171.288 15.6094 171.288 15.4204C171.288 15.0803 171.515 14.6645 171.968 14.1732C172.422 13.6818 172.875 13.3795 173.291 13.2283H173.329Z" fill="white"/>
<path d="M50.079 26.8723H49.701L45.8081 20.2959L46.1483 19.729L50.079 26.3432V26.8723Z" fill="#CDCDCD"/>
<path d="M50.381 26.8724H50.0786V26.3433L50.381 26.8724Z" fill="#CDCDCD"/>
<path d="M49.9653 27.3261L49.7007 26.8726H50.0786V27.2505L49.9653 27.3261Z" fill="#CDCDCD"/>
<path d="M50.0786 27.2505V26.8726H50.381L50.4944 27.0237L50.2298 27.1749L50.0786 27.2505Z" fill="#CDCDCD"/>
<path d="M45.4297 19.7292L41.688 13.3418V12.5481H41.9148L45.8077 19.1245L45.4297 19.7292Z" fill="#CDCDCD"/>
<path d="M41.9148 12.5481H41.688V12.1702L41.9148 12.5481Z" fill="#CDCDCD"/>
<path d="M41.6881 13.3418L41.1968 12.5481H41.6881V13.3418Z" fill="#CDCDCD"/>
<path d="M41.688 12.548H41.1967L41.1211 12.3968L41.6502 12.0945L41.688 12.1701V12.548Z" fill="#CDCDCD"/>
<path d="M41.915 26.8725H41.6504C41.6504 26.7213 41.6882 26.6079 41.6882 26.4568V26.041L45.4677 19.6914L45.8079 20.2961L41.915 26.8725Z" fill="#CDCDCD"/>
<path d="M41.6503 26.8723H41.1968L41.6881 26.0786V26.4944C41.6881 26.6455 41.6503 26.7589 41.6503 26.9101V26.8723Z" fill="#CDCDCD"/>
<path d="M41.6506 27.3261H41.6128C41.6128 27.1749 41.6506 27.0237 41.6506 26.8726H41.9152L41.6506 27.3261Z" fill="#CDCDCD"/>
<path d="M41.6124 27.3261L41.3857 27.1749L41.1211 27.0237L41.1967 26.8726H41.6502C41.6502 27.0237 41.6124 27.1749 41.6124 27.3261Z" fill="#CDCDCD"/>
<path d="M46.1483 19.7292L45.8081 19.1245L49.701 12.5481H50.079V13.0772L46.1483 19.7292Z" fill="#CDCDCD"/>
<path d="M50.0786 12.548H49.7007L49.9653 12.0945L50.0786 12.1701V12.548Z" fill="#CDCDCD"/>
<path d="M50.0786 13.0772V12.5481H50.381L50.0786 13.0772Z" fill="#CDCDCD"/>
<path d="M50.381 12.5481H50.0786V12.1702L50.4944 12.3969L50.381 12.5481Z" fill="#CDCDCD"/>
<path d="M45.8076 20.2962L45.4297 19.7292L45.8076 19.1245L46.1478 19.7292L45.8076 20.2962Z" fill="#CDCDCD"/>
<path d="M1.92736 30.1607C1.85177 29.2536 1.77618 28.3843 1.70059 27.4772H2.15413C2.07854 28.3843 2.04075 29.2536 1.92736 30.1607ZM2.19193 26.8725H1.6628C1.6628 26.7213 1.625 26.5324 1.625 26.3812V12.5481H1.96516L1.92736 14.7024C1.88957 19.956 1.92736 23.0174 2.15413 23.7733C2.19193 23.8489 2.19193 23.9623 2.22972 24.0379V26.3434C2.22972 26.4946 2.19193 26.6835 2.19193 26.8347V26.8725ZM1.96516 11.9434H1.625V7.52134V3.74182C1.625 3.62843 1.625 3.55284 1.6628 3.43945H2.22972C2.22972 3.55284 2.22972 3.62843 2.26752 3.74182V6.42528L2.07854 6.76544L2.04075 11.9056L1.96516 11.9434Z" fill="#CDCDCD"/>
<path d="M1.96516 12.5481H1.625V11.9434H2.00295L1.96516 12.5481Z" fill="#CDCDCD"/>
<path d="M2.15442 27.4773H1.70088C1.70088 27.2883 1.66309 27.0615 1.66309 26.8726H2.19222C2.19222 27.0615 2.15442 27.2883 2.15442 27.4773Z" fill="#CDCDCD"/>
<path d="M2.22978 24.0755C2.19198 23.9999 2.19198 23.8866 2.15419 23.811C1.96521 23.0173 1.88962 19.9936 1.92742 14.7401L1.96521 12.5858V11.981L2.00301 6.84089L2.19198 6.50073V7.5968V24.1511L2.22978 24.0755Z" fill="white"/>
<path d="M2.19231 2.83465H1.73877C1.81436 1.88976 1.88995 0.944882 1.96554 0C2.07893 0.944882 2.11672 1.88976 2.19231 2.83465Z" fill="#CDCDCD"/>
<path d="M42.7464 3.43944H41.6126C41.6126 3.25046 41.5748 3.02369 41.5748 2.83472H42.7464V3.43944ZM41.0834 3.43944H22.2236C22.2236 3.25046 22.1858 3.02369 22.1858 2.83472H41.1212C41.1212 3.02369 41.0834 3.25046 41.0834 3.43944ZM21.6945 3.43944H21.2787C21.2787 3.25046 21.2409 3.02369 21.2409 2.83472H21.7323C21.7323 3.02369 21.6945 3.25046 21.6945 3.43944ZM20.7118 3.43944H2.19209C2.19209 3.25046 2.1543 3.02369 2.1543 2.83472H20.7496C20.7496 3.02369 20.7118 3.25046 20.7118 3.43944Z" fill="#CDCDCD"/>
<path d="M41.6504 3.43944H41.0835C41.0835 3.25046 41.1213 3.02369 41.1213 2.83472H41.5748C41.5748 3.02369 41.6126 3.25046 41.6126 3.43944H41.6504Z" fill="#CDCDCD"/>
<path d="M22.2613 3.43944H21.6943C21.6943 3.25046 21.7321 3.02369 21.7321 2.83472H22.1857C22.1857 3.02369 22.2235 3.25046 22.2235 3.43944H22.2613Z" fill="#CDCDCD"/>
<path d="M21.2788 3.43944H20.7119C20.7119 3.25046 20.7497 3.02369 20.7497 2.83472H21.2033C21.2033 3.02369 21.241 3.25046 21.241 3.43944H21.2788Z" fill="#CDCDCD"/>
<path d="M1.66318 3.43944H0.151367V2.83472H1.70097C1.70097 3.02369 1.66318 3.25046 1.66318 3.43944Z" fill="#CDCDCD"/>
<path d="M2.23002 3.43944H1.66309C1.66309 3.25046 1.70088 3.02369 1.70088 2.83472H2.15442C2.15442 3.02369 2.19222 3.25046 2.19222 3.43944H2.23002Z" fill="#CDCDCD"/>
</svg>
