<svg width="19" height="17" viewBox="0 0 19 17" fill="none" xmlns="http://www.w3.org/2000/svg">
<path fill-rule="evenodd" clip-rule="evenodd" d="M0 3.13155C0 2.6374 0.400587 2.23682 0.894737 2.23682H17.8947C18.3889 2.23682 18.7895 2.6374 18.7895 3.13155C18.7895 3.6257 18.3889 4.02629 17.8947 4.02629H0.894737C0.400587 4.02629 0 3.6257 0 3.13155Z" fill="black"/>
<path fill-rule="evenodd" clip-rule="evenodd" d="M0 13.4211C0 12.927 0.400587 12.5264 0.894737 12.5264H17.8947C18.3889 12.5264 18.7895 12.927 18.7895 13.4211C18.7895 13.9153 18.3889 14.3158 17.8947 14.3158H0.894737C0.400587 14.3158 0 13.9153 0 13.4211Z" fill="black"/>
<circle cx="12.9736" cy="3.13158" r="2.13158" fill="white" stroke="black" stroke-width="2"/>
<circle cx="5.81591" cy="13.8684" r="2.13158" fill="white" stroke="black" stroke-width="2"/>
</svg>
